  0
SECTION
  2
HEADER
  9
$ACADVER
  1
AC1009
  9
$INSBASE
 10
0
 20
0
 30
0
  9
$EXTMIN
 10
0
 20
0
  9
$EXTMAX
 10
2970
 20
2100
  9
$LIMMIN
 10
0
 20
0
  9
$LIMMAX
 10
2970
 20
2100
  9
$LTSCALE
 40
10
  0
ENDSEC
  0
SECTION
  2
TABLES
  0
TABLE
  2
LTYPE
 70
     9
  0
LTYPE
  2
CONTINUOUS
 70
    64
  3
実線
 72
    65
 73
     0
 40
0.0
  0
LTYPE
  2
DASHED1
 70
    64
  3
--  --  --  --  --  --  --  --  
 72
    65
 73
     2
 40
2.5
 49
1.25
 49
-1.25
  0
LTYPE
  2
DASHED2
 70
    64
  3
----    ----    ----    ----    
 72
    65
 73
     2
 40
5.0
 49
2.5
 49
-2.5
  0
LTYPE
  2
DASHED3
 70
    64
  3
------  ------  ------  ------  
 72
    65
 73
     2
 40
5.0
 49
3.75
 49
-1.25
  0
LTYPE
  2
CENTER1
 70
    64
  3
----- - ----- - ----- - ----- - 
 72
    65
 73
     4
 40
10.0
 49
6.25
 49
-1.25
 49
1.25
 49
-1.25
  0
LTYPE
  2
CENTER2
 70
    64
  3
----------  --  ----------  --  
 72
    65
 73
     4
 40
20.0
 49
12.5
 49
-2.5
 49
2.5
 49
-2.5
  0
LTYPE
  2
PHANTOM1
 70
    64
  3
--- - - --- - - --- - - --- - - 
 72
    65
 73
     6
 40
10.0
 49
3.25
 49
-1.25
 49
1.25
 49
-1.25
 49
1.25
 49
-1.25
  0
LTYPE
  2
PHANTOM2
 70
    64
  3
--------  -  -  --------  -  -  
 72
    65
 73
     6
 40
20.0
 49
10.0
 49
-2.5
 49
1.25
 49
-2.5
 49
1.25
 49
-2.5
  0
LTYPE
  2
DOT
 70
    64
  3
-   -   -   -   -   -   -   -   
 72
    65
 73
     2
 40
2.5
 49
0.625
 49
-1.875
  0
LTYPE
  2
DUMMY
 70
    64
  3
ダミー
 72
    65
 73
     0
 40
0.0
  0
LTYPE
  2
RAND1
 70
    64
  3
ランダム線1
 72
    65
 73
     4
 40
10.0
 49
1.0
 49
-2.0
 49
3.0
 49
-4.0
  0
LTYPE
  2
RAND2
 70
    64
  3
ランダム線2
 72
    65
 73
     4
 40
14.0
 49
2.0
 49
-3.0
 49
4.0
 49
-5.0
  0
LTYPE
  2
RAND3
 70
    64
  3
ランダム線3
 72
    65
 73
     4
 40
18.0
 49
3.0
 49
-4.0
 49
5.0
 49
-6.0
  0
LTYPE
  2
RAND4
 70
    64
  3
ランダム線4
 72
    65
 73
     4
 40
22.0
 49
4.0
 49
-5.0
 49
6.0
 49
-7.0
  0
LTYPE
  2
RAND5
 70
    64
  3
ランダム線5
 72
    65
 73
     4
 40
26.0
 49
5.0
 49
-6.0
 49
7.0
 49
-8.0
  0
LTYPE
  2
LONG1
 70
    64
  3
----------  --  ----------  --  
 72
    65
 73
     4
 40
40.0
 49
32.5
 49
-2.5
 49
2.5
 49
-2.5
  0
LTYPE
  2
LONG2
 70
    64
  3
--------  -  -  --------  -  -  
 72
    65
 73
     6
 40
40.0
 49
30.0
 49
-2.5
 49
1.25
 49
-2.5
 49
1.25
 49
-2.5
  0
LTYPE
  2
LONG3
 70
    64
  3
+++++++++++++++..+++++++++++++++
 72
    65
 73
     2
 40
40.0
 49
37.5
 49
-2.5
  0
LTYPE
  2
LONG4
 70
    64
  3
+++++++++++++++..+++++++++++++++
 72
    65
 73
     2
 40
80.0
 49
75.0
 49
-5.0
  0
LTYPE
  2
LONG5
 70
    64
  3
----------  --  ----------  --  
 72
    65
 73
     4
 40
60.0
 49
37.5
 49
-7.5
 49
7.5
 49
-7.5
  0
LTYPE
  2
dashed
 70
   64
  3
-------   -------------   ------
 72
   65
 73
    2
 40
7.5
 49
6
 49
-1.5
  0
LTYPE
  2
dashed_spaced
 70
   64
  3
----        --------        ----
 72
   65
 73
    2
 40
12
 49
6
 49
-6
  0
LTYPE
  2
long_dashed_dotted
 70
   64
  3
------------- --- --------------
 72
   65
 73
    4
 40
15.25
 49
12
 49
-1.5
 49
0.25
 49
-1.5
  0
LTYPE
  2
long_dashed_double-dotted
 70
   64
  3
----------- --- --- ------------
 72
   65
 73
    6
 40
17
 49
12
 49
-1.5
 49
0.25
 49
-1.5
 49
0.25
 49
-1.5
  0
LTYPE
  2
long_dashed_triplicate-dotted
 70
   64
  3
--------- --- --- --- ----------
 72
   65
 73
    8
 40
18.75
 49
12
 49
-1.5
 49
0.25
 49
-1.5
 49
0.25
 49
-1.5
 49
0.25
 49
-1.5
  0
LTYPE
  2
dotted
 70
   64
  3
   -       -       -       -    
 72
   65
 73
    2
 40
1.75
 49
0.25
 49
-1.5
  0
LTYPE
  2
chain
 70
   64
  3
-------------- -- --------------
 72
   65
 73
    4
 40
18.5
 49
12
 49
-1.5
 49
3.5
 49
-1.5
  0
LTYPE
  2
chain_double_dash
 70
   64
  3
------------ -- -- -------------
 72
   65
 73
    6
 40
23.5
 49
12
 49
-1.5
 49
3.5
 49
-1.5
 49
3.5
 49
-1.5
  0
LTYPE
  2
dashed_dotted
 70
   64
  3
-----------     -     ----------
 72
   65
 73
    4
 40
9.25
 49
6
 49
-1.5
 49
0.25
 49
-1.5
  0
LTYPE
  2
double-dashed_dotted
 70
   64
  3
------   -----------   -   -----
 72
   65
 73
    6
 40
16.75
 49
6
 49
-1.5
 49
6
 49
-1.5
 49
0.25
 49
-1.5
  0
LTYPE
  2
dashed_double-dotted
 70
   64
  3
---------    -    -    ---------
 72
   65
 73
    6
 40
11
 49
6
 49
-1.5
 49
0.25
 49
-1.5
 49
0.25
 49
-1.5
  0
LTYPE
  2
double-dashed_double-dotted
 70
   64
  3
-----   ---------   -   -   ----
 72
   65
 73
    8
 40
18.5
 49
6
 49
-1.5
 49
6
 49
-1.5
 49
0.25
 49
-1.5
 49
0.25
 49
-1.5
  0
LTYPE
  2
dashed_triplicate-dotted
 70
   64
  3
-------    -    -    -    ------
 72
   65
 73
    8
 40
12.75
 49
6
 49
-1.5
 49
0.25
 49
-1.5
 49
0.25
 49
-1.5
 49
0.25
 49
-1.5
  0
LTYPE
  2
double-dashed_triplicate-dotted
 70
   64
  3
-----  ---------  -  -  -  -----
 72
   65
 73
   10
 40
20.25
 49
6
 49
-1.5
 49
6
 49
-1.5
 49
0.25
 49
-1.5
 49
0.25
 49
-1.5
 49
0.25
 49
-1.5
  0
LTYPE
  2
undefined
 70
   64
  3
--------------------------------
 72
   65
 73
    0
 40
0
  0
ENDTAB
  0
TABLE
  2
STYLE
  5
3
100
AcDbSymbolTable
 70
     1
  0
STYLE
  5
10
100
AcDbSymbolTableRecord
100
AcDbTextStyleTableRecord
  2
STANDARD
 70
     0
 40
0.0
 41
1.0
 50
0.0
 71
     0
 42
0.2
  3
txt
  4
bigfont.shx
  0
STYLE
  5
26
100
AcDbSymbolTableRecord
100
AcDbTextStyleTableRecord
  2
TATEGAKI
 70
    68
 40
0.0
 41
1.0
 50
0.0
 71
     0
 42
1.0
  3
txt
  4
bigfont.shx
  0
ENDTAB
  0
TABLE
  2
LAYER
 70
    3
  0
LAYER
  2
_0-0_
 70
   64
 62
    7
  6
CONTINUOUS
  0
LAYER
  2
_0-1_
 70
   64
 62
    7
  6
CONTINUOUS
  0
LAYER
  2
ADD_LINE
 70
   64
 62
    7
  6
CONTINUOUS
  0
ENDTAB
  0
ENDSEC
  0
SECTION
  2
BLOCKS
  0
ENDSEC
  0
SECTION
  2
ENTITIES
  0
LINE
  8
_0-0_
  6
CONTINUOUS
 62
    7
 10
639.31841831425595
 20
841.19667013527578
 11
1539.318418314256
 21
841.19667013527578
  0
LINE
  8
_0-0_
  6
CONTINUOUS
 62
    7
 10
639.31841831425595
 20
846.19667013527578
 11
1539.318418314256
 21
846.19667013527578
  0
LINE
  8
_0-0_
  6
CONTINUOUS
 62
    7
 10
639.31841831425595
 20
851.19667013527578
 11
1539.318418314256
 21
851.19667013527578
  0
LINE
  8
_0-0_
  6
CONTINUOUS
 62
    7
 10
639.31841831425595
 20
891.19667013527578
 11
1539.318418314256
 21
891.19667013527578
  0
LINE
  8
_0-0_
  6
CONTINUOUS
 62
    7
 10
639.31841831425595
 20
1701.1966701352758
 11
1539.318418314256
 21
1701.1966701352758
  0
LINE
  8
_0-0_
  6
CONTINUOUS
 62
    7
 10
639.31841831425595
 20
1701.1966701352758
 11
639.31841831425595
 21
801.19667013527578
  0
LINE
  8
_0-0_
  6
CONTINUOUS
 62
    7
 10
639.31841831425595
 20
801.19667013527578
 11
1539.318418314256
 21
801.19667013527578
  0
LINE
  8
_0-0_
  6
CONTINUOUS
 62
    7
 10
1539.318418314256
 20
1701.1966701352758
 11
1539.318418314256
 21
801.19667013527578
  0
LINE
  8
_0-0_
  6
CONTINUOUS
 62
    7
 10
639.31841831425595
 20
1661.1966701352758
 11
1539.318418314256
 21
1661.1966701352758
  0
LINE
  8
_0-0_
  6
CONTINUOUS
 62
    7
 10
639.31841831425595
 20
1656.1966701352758
 11
1539.318418314256
 21
1656.1966701352758
  0
LINE
  8
_0-0_
  6
CONTINUOUS
 62
    7
 10
639.31841831425595
 20
1651.1966701352758
 11
1539.318418314256
 21
1651.1966701352758
  0
LINE
  8
_0-0_
  6
CONTINUOUS
 62
    7
 10
639.31841831425595
 20
1611.1966701352758
 11
1539.318418314256
 21
1611.1966701352758
  0
LINE
  8
_0-0_
  6
CONTINUOUS
 62
    7
 10
639.31841831425595
 20
1571.1966701352758
 11
1539.318418314256
 21
1571.1966701352758
  0
LINE
  8
_0-0_
  6
CONTINUOUS
 62
    7
 10
639.31841831425595
 20
1566.1966701352758
 11
1539.318418314256
 21
1566.1966701352758
  0
LINE
  8
_0-0_
  6
CONTINUOUS
 62
    7
 10
639.31841831425595
 20
1561.1966701352758
 11
1539.318418314256
 21
1561.1966701352758
  0
LINE
  8
_0-0_
  6
CONTINUOUS
 62
    7
 10
639.31841831425595
 20
1521.1966701352758
 11
1539.318418314256
 21
1521.1966701352758
  0
LINE
  8
_0-0_
  6
CONTINUOUS
 62
    7
 10
639.31841831425595
 20
1481.1966701352758
 11
1539.318418314256
 21
1481.1966701352758
  0
LINE
  8
_0-0_
  6
CONTINUOUS
 62
    7
 10
639.31841831425595
 20
1476.1966701352758
 11
1539.318418314256
 21
1476.1966701352758
  0
LINE
  8
_0-0_
  6
CONTINUOUS
 62
    7
 10
639.31841831425595
 20
1471.1966701352758
 11
1539.318418314256
 21
1471.1966701352758
  0
LINE
  8
_0-0_
  6
CONTINUOUS
 62
    7
 10
639.31841831425595
 20
1431.1966701352758
 11
1539.318418314256
 21
1431.1966701352758
  0
LINE
  8
_0-0_
  6
CONTINUOUS
 62
    7
 10
639.31841831425595
 20
1391.1966701352758
 11
1539.318418314256
 21
1391.1966701352758
  0
LINE
  8
_0-0_
  6
CONTINUOUS
 62
    7
 10
639.31841831425595
 20
1386.1966701352758
 11
1539.318418314256
 21
1386.1966701352758
  0
LINE
  8
_0-0_
  6
CONTINUOUS
 62
    7
 10
639.31841831425595
 20
1381.1966701352758
 11
1539.318418314256
 21
1381.1966701352758
  0
LINE
  8
_0-0_
  6
CONTINUOUS
 62
    7
 10
639.31841831425595
 20
1341.1966701352758
 11
1539.318418314256
 21
1341.1966701352758
  0
LINE
  8
_0-0_
  6
CONTINUOUS
 62
    7
 10
639.31841831425595
 20
1301.1966701352758
 11
1539.318418314256
 21
1301.1966701352758
  0
LINE
  8
_0-0_
  6
CONTINUOUS
 62
    7
 10
639.31841831425595
 20
1296.1966701352758
 11
1539.318418314256
 21
1296.1966701352758
  0
LINE
  8
_0-0_
  6
CONTINUOUS
 62
    7
 10
639.31841831425595
 20
1291.1966701352758
 11
1539.318418314256
 21
1291.1966701352758
  0
LINE
  8
_0-0_
  6
CONTINUOUS
 62
    7
 10
639.31841831425595
 20
1251.1966701352758
 11
1539.318418314256
 21
1251.1966701352758
  0
LINE
  8
_0-0_
  6
CONTINUOUS
 62
    7
 10
639.31841831425595
 20
1211.1966701352758
 11
1539.318418314256
 21
1211.1966701352758
  0
LINE
  8
_0-0_
  6
CONTINUOUS
 62
    7
 10
639.31841831425595
 20
1206.1966701352758
 11
1539.318418314256
 21
1206.1966701352758
  0
LINE
  8
_0-0_
  6
CONTINUOUS
 62
    7
 10
639.31841831425595
 20
1201.1966701352758
 11
1539.318418314256
 21
1201.1966701352758
  0
LINE
  8
_0-0_
  6
CONTINUOUS
 62
    7
 10
639.31841831425595
 20
1161.1966701352758
 11
1539.318418314256
 21
1161.1966701352758
  0
LINE
  8
_0-0_
  6
CONTINUOUS
 62
    7
 10
639.31841831425595
 20
1121.1966701352758
 11
1539.318418314256
 21
1121.1966701352758
  0
LINE
  8
_0-0_
  6
CONTINUOUS
 62
    7
 10
639.31841831425595
 20
1116.1966701352758
 11
1539.318418314256
 21
1116.1966701352758
  0
LINE
  8
_0-0_
  6
CONTINUOUS
 62
    7
 10
639.31841831425595
 20
1111.1966701352758
 11
1539.318418314256
 21
1111.1966701352758
  0
LINE
  8
_0-0_
  6
CONTINUOUS
 62
    7
 10
639.31841831425595
 20
1071.1966701352758
 11
1539.318418314256
 21
1071.1966701352758
  0
LINE
  8
_0-0_
  6
CONTINUOUS
 62
    7
 10
639.31841831425595
 20
1031.1966701352758
 11
1539.318418314256
 21
1031.1966701352758
  0
LINE
  8
_0-0_
  6
CONTINUOUS
 62
    7
 10
639.31841831425595
 20
1026.1966701352758
 11
1539.318418314256
 21
1026.1966701352758
  0
LINE
  8
_0-0_
  6
CONTINUOUS
 62
    7
 10
639.31841831425595
 20
1021.1966701352758
 11
1539.318418314256
 21
1021.1966701352758
  0
LINE
  8
_0-0_
  6
CONTINUOUS
 62
    7
 10
639.31841831425595
 20
981.19667013527578
 11
1539.318418314256
 21
981.19667013527578
  0
LINE
  8
_0-0_
  6
CONTINUOUS
 62
    7
 10
639.31841831425595
 20
941.19667013527578
 11
1539.318418314256
 21
941.19667013527578
  0
LINE
  8
_0-0_
  6
CONTINUOUS
 62
    7
 10
639.31841831425595
 20
936.19667013527578
 11
1539.318418314256
 21
936.19667013527578
  0
LINE
  8
_0-0_
  6
CONTINUOUS
 62
    7
 10
639.31841831425595
 20
931.19667013527578
 11
1539.318418314256
 21
931.19667013527578
  0
LINE
  8
_0-0_
  6
CONTINUOUS
 62
    7
 10
684.31841831425595
 20
1701.1966701352758
 11
684.31841831425595
 21
801.19667013527578
  0
LINE
  8
_0-0_
  6
CONTINUOUS
 62
    7
 10
898.06841831425595
 20
1701.1966701352758
 11
898.06841831425595
 21
801.19667013527578
  0
LINE
  8
_0-0_
  6
CONTINUOUS
 62
    7
 10
1111.818418314256
 20
1701.1966701352758
 11
1111.818418314256
 21
801.19667013527578
  0
LINE
  8
_0-0_
  6
CONTINUOUS
 62
    7
 10
1325.568418314256
 20
1701.1966701352758
 11
1325.568418314256
 21
801.19667013527578
  0
LINE
  8
_0-0_
  6
CONTINUOUS
 62
    7
 10
1494.318418314256
 20
1701.1966701352758
 11
1494.318418314256
 21
801.19667013527578
  0
LINE
  8
_0-0_
  6
CONTINUOUS
 62
    7
 10
1280.568418314256
 20
1701.1966701352758
 11
1280.568418314256
 21
801.19667013527578
  0
LINE
  8
_0-0_
  6
CONTINUOUS
 62
    7
 10
1066.818418314256
 20
1701.1966701352758
 11
1066.818418314256
 21
801.19667013527578
  0
LINE
  8
_0-0_
  6
CONTINUOUS
 62
    7
 10
853.06841831425595
 20
1701.1966701352758
 11
853.06841831425595
 21
801.19667013527578
  0
LINE
  8
_0-1_
  6
CONTINUOUS
 62
    7
 10
684.31841831425595
 20
1701.1966701352758
 11
639.31841831425595
 21
1656.1966701352758
  0
LINE
  8
_0-1_
  6
CONTINUOUS
 62
    7
 10
639.31841831425595
 20
1656.1966701352758
 11
684.31841831425595
 21
1611.1966701352758
  0
LINE
  8
_0-1_
  6
CONTINUOUS
 62
    7
 10
898.06841831425595
 20
1611.1966701352758
 11
853.06841831425595
 21
1656.1966701352758
  0
LINE
  8
_0-1_
  6
CONTINUOUS
 62
    7
 10
853.06841831425595
 20
1656.1966701352758
 11
898.06841831425595
 21
1701.1966701352758
  0
LINE
  8
_0-1_
  6
CONTINUOUS
 62
    7
 10
1111.818418314256
 20
1701.1966701352758
 11
1066.818418314256
 21
1656.1966701352758
  0
LINE
  8
_0-1_
  6
CONTINUOUS
 62
    7
 10
1066.818418314256
 20
1656.1966701352758
 11
1111.818418314256
 21
1611.1966701352758
  0
LINE
  8
_0-1_
  6
CONTINUOUS
 62
    7
 10
1325.568418314256
 20
1611.1966701352758
 11
1280.568418314256
 21
1656.1966701352758
  0
LINE
  8
_0-1_
  6
CONTINUOUS
 62
    7
 10
1280.568418314256
 20
1656.1966701352758
 11
1325.568418314256
 21
1701.1966701352758
  0
LINE
  8
_0-1_
  6
CONTINUOUS
 62
    7
 10
1539.318418314256
 20
1701.1966701352758
 11
1494.318418314256
 21
1656.1966701352758
  0
LINE
  8
_0-1_
  6
CONTINUOUS
 62
    7
 10
1494.318418314256
 20
1656.1966701352758
 11
1539.318418314256
 21
1611.1966701352758
  0
LINE
  8
_0-1_
  6
CONTINUOUS
 62
    7
 10
684.31841831425595
 20
1611.1966701352758
 11
639.31841831425595
 21
1566.1966701352758
  0
LINE
  8
_0-1_
  6
CONTINUOUS
 62
    7
 10
639.31841831425595
 20
1566.1966701352758
 11
684.31841831425595
 21
1521.1966701352758
  0
LINE
  8
_0-1_
  6
CONTINUOUS
 62
    7
 10
898.06841831425595
 20
1521.1966701352758
 11
853.06841831425595
 21
1566.1966701352758
  0
LINE
  8
_0-1_
  6
CONTINUOUS
 62
    7
 10
853.06841831425595
 20
1566.1966701352758
 11
898.06841831425595
 21
1611.1966701352758
  0
LINE
  8
_0-1_
  6
CONTINUOUS
 62
    7
 10
1111.818418314256
 20
1611.1966701352758
 11
1066.818418314256
 21
1566.1966701352758
  0
LINE
  8
_0-1_
  6
CONTINUOUS
 62
    7
 10
1066.818418314256
 20
1566.1966701352758
 11
1111.818418314256
 21
1521.1966701352758
  0
LINE
  8
_0-1_
  6
CONTINUOUS
 62
    7
 10
1325.568418314256
 20
1521.1966701352758
 11
1280.568418314256
 21
1566.1966701352758
  0
LINE
  8
_0-1_
  6
CONTINUOUS
 62
    7
 10
1280.568418314256
 20
1566.1966701352758
 11
1325.568418314256
 21
1611.1966701352758
  0
LINE
  8
_0-1_
  6
CONTINUOUS
 62
    7
 10
1539.318418314256
 20
1611.1966701352758
 11
1494.318418314256
 21
1566.1966701352758
  0
LINE
  8
_0-1_
  6
CONTINUOUS
 62
    7
 10
1494.318418314256
 20
1566.1966701352758
 11
1539.318418314256
 21
1521.1966701352758
  0
LINE
  8
_0-1_
  6
CONTINUOUS
 62
    7
 10
684.31841831425595
 20
1521.1966701352758
 11
639.31841831425595
 21
1476.1966701352758
  0
LINE
  8
_0-1_
  6
CONTINUOUS
 62
    7
 10
639.31841831425595
 20
1476.1966701352758
 11
684.31841831425595
 21
1431.1966701352758
  0
LINE
  8
_0-1_
  6
CONTINUOUS
 62
    7
 10
898.06841831425595
 20
1431.1966701352758
 11
853.06841831425595
 21
1476.1966701352758
  0
LINE
  8
_0-1_
  6
CONTINUOUS
 62
    7
 10
853.06841831425595
 20
1476.1966701352758
 11
898.06841831425595
 21
1521.1966701352758
  0
LINE
  8
_0-1_
  6
CONTINUOUS
 62
    7
 10
1111.818418314256
 20
1521.1966701352758
 11
1066.818418314256
 21
1476.1966701352758
  0
LINE
  8
_0-1_
  6
CONTINUOUS
 62
    7
 10
1066.818418314256
 20
1476.1966701352758
 11
1111.818418314256
 21
1431.1966701352758
  0
LINE
  8
_0-1_
  6
CONTINUOUS
 62
    7
 10
1325.568418314256
 20
1431.1966701352758
 11
1280.568418314256
 21
1476.1966701352758
  0
LINE
  8
_0-1_
  6
CONTINUOUS
 62
    7
 10
1280.568418314256
 20
1476.1966701352758
 11
1325.568418314256
 21
1521.1966701352758
  0
LINE
  8
_0-1_
  6
CONTINUOUS
 62
    7
 10
1539.318418314256
 20
1521.1966701352758
 11
1494.318418314256
 21
1476.1966701352758
  0
LINE
  8
_0-1_
  6
CONTINUOUS
 62
    7
 10
1494.318418314256
 20
1476.1966701352758
 11
1539.318418314256
 21
1431.1966701352758
  0
LINE
  8
_0-1_
  6
CONTINUOUS
 62
    7
 10
684.31841831425595
 20
1431.1966701352758
 11
639.31841831425595
 21
1386.1966701352758
  0
LINE
  8
_0-1_
  6
CONTINUOUS
 62
    7
 10
639.31841831425595
 20
1386.1966701352758
 11
684.31841831425595
 21
1341.1966701352758
  0
LINE
  8
_0-1_
  6
CONTINUOUS
 62
    7
 10
898.06841831425595
 20
1341.1966701352758
 11
853.06841831425595
 21
1386.1966701352758
  0
LINE
  8
_0-1_
  6
CONTINUOUS
 62
    7
 10
853.06841831425595
 20
1386.1966701352758
 11
898.06841831425595
 21
1431.1966701352758
  0
LINE
  8
_0-1_
  6
CONTINUOUS
 62
    7
 10
1111.818418314256
 20
1431.1966701352758
 11
1066.818418314256
 21
1386.1966701352758
  0
LINE
  8
_0-1_
  6
CONTINUOUS
 62
    7
 10
1066.818418314256
 20
1386.1966701352758
 11
1111.818418314256
 21
1341.1966701352758
  0
LINE
  8
_0-1_
  6
CONTINUOUS
 62
    7
 10
1325.568418314256
 20
1341.1966701352758
 11
1280.568418314256
 21
1386.1966701352758
  0
LINE
  8
_0-1_
  6
CONTINUOUS
 62
    7
 10
1280.568418314256
 20
1386.1966701352758
 11
1325.568418314256
 21
1431.1966701352758
  0
LINE
  8
_0-1_
  6
CONTINUOUS
 62
    7
 10
1539.318418314256
 20
1431.1966701352758
 11
1494.318418314256
 21
1386.1966701352758
  0
LINE
  8
_0-1_
  6
CONTINUOUS
 62
    7
 10
1494.318418314256
 20
1386.1966701352758
 11
1539.318418314256
 21
1341.1966701352758
  0
LINE
  8
_0-1_
  6
CONTINUOUS
 62
    7
 10
684.31841831425595
 20
1341.1966701352758
 11
639.31841831425595
 21
1296.1966701352758
  0
LINE
  8
_0-1_
  6
CONTINUOUS
 62
    7
 10
639.31841831425595
 20
1296.1966701352758
 11
684.31841831425595
 21
1251.1966701352758
  0
LINE
  8
_0-1_
  6
CONTINUOUS
 62
    7
 10
898.06841831425595
 20
1251.1966701352758
 11
853.06841831425595
 21
1296.1966701352758
  0
LINE
  8
_0-1_
  6
CONTINUOUS
 62
    7
 10
853.06841831425595
 20
1296.1966701352758
 11
898.06841831425595
 21
1341.1966701352758
  0
LINE
  8
_0-1_
  6
CONTINUOUS
 62
    7
 10
1111.818418314256
 20
1341.1966701352758
 11
1066.818418314256
 21
1296.1966701352758
  0
LINE
  8
_0-1_
  6
CONTINUOUS
 62
    7
 10
1066.818418314256
 20
1296.1966701352758
 11
1111.818418314256
 21
1251.1966701352758
  0
LINE
  8
_0-1_
  6
CONTINUOUS
 62
    7
 10
1325.568418314256
 20
1251.1966701352758
 11
1280.568418314256
 21
1296.1966701352758
  0
LINE
  8
_0-1_
  6
CONTINUOUS
 62
    7
 10
1280.568418314256
 20
1296.1966701352758
 11
1325.568418314256
 21
1341.1966701352758
  0
LINE
  8
_0-1_
  6
CONTINUOUS
 62
    7
 10
1539.318418314256
 20
1341.1966701352758
 11
1494.318418314256
 21
1296.1966701352758
  0
LINE
  8
_0-1_
  6
CONTINUOUS
 62
    7
 10
1494.318418314256
 20
1296.1966701352758
 11
1539.318418314256
 21
1251.1966701352758
  0
LINE
  8
_0-1_
  6
CONTINUOUS
 62
    7
 10
684.31841831425595
 20
1251.1966701352758
 11
639.31841831425595
 21
1206.1966701352758
  0
LINE
  8
_0-1_
  6
CONTINUOUS
 62
    7
 10
639.31841831425595
 20
1206.1966701352758
 11
684.31841831425595
 21
1161.1966701352758
  0
LINE
  8
_0-1_
  6
CONTINUOUS
 62
    7
 10
898.06841831425595
 20
1161.1966701352758
 11
853.06841831425595
 21
1206.1966701352758
  0
LINE
  8
_0-1_
  6
CONTINUOUS
 62
    7
 10
853.06841831425595
 20
1206.1966701352758
 11
898.06841831425595
 21
1251.1966701352758
  0
LINE
  8
_0-1_
  6
CONTINUOUS
 62
    7
 10
1111.818418314256
 20
1251.1966701352758
 11
1066.818418314256
 21
1206.1966701352758
  0
LINE
  8
_0-1_
  6
CONTINUOUS
 62
    7
 10
1066.818418314256
 20
1206.1966701352758
 11
1111.818418314256
 21
1161.1966701352758
  0
LINE
  8
_0-1_
  6
CONTINUOUS
 62
    7
 10
1325.568418314256
 20
1161.1966701352758
 11
1280.568418314256
 21
1206.1966701352758
  0
LINE
  8
_0-1_
  6
CONTINUOUS
 62
    7
 10
1280.568418314256
 20
1206.1966701352758
 11
1325.568418314256
 21
1251.1966701352758
  0
LINE
  8
_0-1_
  6
CONTINUOUS
 62
    7
 10
1539.318418314256
 20
1251.1966701352758
 11
1494.318418314256
 21
1206.1966701352758
  0
LINE
  8
_0-1_
  6
CONTINUOUS
 62
    7
 10
1494.318418314256
 20
1206.1966701352758
 11
1539.318418314256
 21
1161.1966701352758
  0
LINE
  8
_0-1_
  6
CONTINUOUS
 62
    7
 10
684.31841831425595
 20
1161.1966701352758
 11
639.31841831425595
 21
1116.1966701352758
  0
LINE
  8
_0-1_
  6
CONTINUOUS
 62
    7
 10
639.31841831425595
 20
1116.1966701352758
 11
684.31841831425595
 21
1071.1966701352758
  0
LINE
  8
_0-1_
  6
CONTINUOUS
 62
    7
 10
898.06841831425595
 20
1071.1966701352758
 11
853.06841831425595
 21
1116.1966701352758
  0
LINE
  8
_0-1_
  6
CONTINUOUS
 62
    7
 10
853.06841831425595
 20
1116.1966701352758
 11
898.06841831425595
 21
1161.1966701352758
  0
LINE
  8
_0-1_
  6
CONTINUOUS
 62
    7
 10
1111.818418314256
 20
1161.1966701352758
 11
1066.818418314256
 21
1116.1966701352758
  0
LINE
  8
_0-1_
  6
CONTINUOUS
 62
    7
 10
1066.818418314256
 20
1116.1966701352758
 11
1111.818418314256
 21
1071.1966701352758
  0
LINE
  8
_0-1_
  6
CONTINUOUS
 62
    7
 10
1325.568418314256
 20
1071.1966701352758
 11
1280.568418314256
 21
1116.1966701352758
  0
LINE
  8
_0-1_
  6
CONTINUOUS
 62
    7
 10
1280.568418314256
 20
1116.1966701352758
 11
1325.568418314256
 21
1161.1966701352758
  0
LINE
  8
_0-1_
  6
CONTINUOUS
 62
    7
 10
1539.318418314256
 20
1161.1966701352758
 11
1494.318418314256
 21
1116.1966701352758
  0
LINE
  8
_0-1_
  6
CONTINUOUS
 62
    7
 10
1494.318418314256
 20
1116.1966701352758
 11
1539.318418314256
 21
1071.1966701352758
  0
LINE
  8
_0-1_
  6
CONTINUOUS
 62
    7
 10
684.31841831425595
 20
1071.1966701352758
 11
639.31841831425595
 21
1026.1966701352758
  0
LINE
  8
_0-1_
  6
CONTINUOUS
 62
    7
 10
639.31841831425595
 20
1026.1966701352758
 11
684.31841831425595
 21
981.19667013527578
  0
LINE
  8
_0-1_
  6
CONTINUOUS
 62
    7
 10
898.06841831425595
 20
981.19667013527578
 11
853.06841831425595
 21
1026.1966701352758
  0
LINE
  8
_0-1_
  6
CONTINUOUS
 62
    7
 10
853.06841831425595
 20
1026.1966701352758
 11
898.06841831425595
 21
1071.1966701352758
  0
LINE
  8
_0-1_
  6
CONTINUOUS
 62
    7
 10
1111.818418314256
 20
1071.1966701352758
 11
1066.818418314256
 21
1026.1966701352758
  0
LINE
  8
_0-1_
  6
CONTINUOUS
 62
    7
 10
1066.818418314256
 20
1026.1966701352758
 11
1111.818418314256
 21
981.19667013527578
  0
LINE
  8
_0-1_
  6
CONTINUOUS
 62
    7
 10
1325.568418314256
 20
981.19667013527578
 11
1280.568418314256
 21
1026.1966701352758
  0
LINE
  8
_0-1_
  6
CONTINUOUS
 62
    7
 10
1280.568418314256
 20
1026.1966701352758
 11
1325.568418314256
 21
1071.1966701352758
  0
LINE
  8
_0-1_
  6
CONTINUOUS
 62
    7
 10
1539.318418314256
 20
1071.1966701352758
 11
1494.318418314256
 21
1026.1966701352758
  0
LINE
  8
_0-1_
  6
CONTINUOUS
 62
    7
 10
1494.318418314256
 20
1026.1966701352758
 11
1539.318418314256
 21
981.19667013527578
  0
LINE
  8
_0-1_
  6
CONTINUOUS
 62
    7
 10
684.31841831425595
 20
981.19667013527578
 11
639.31841831425595
 21
936.19667013527578
  0
LINE
  8
_0-1_
  6
CONTINUOUS
 62
    7
 10
639.31841831425595
 20
936.19667013527578
 11
684.31841831425595
 21
891.19667013527578
  0
LINE
  8
_0-1_
  6
CONTINUOUS
 62
    7
 10
898.06841831425595
 20
891.19667013527578
 11
853.06841831425595
 21
936.19667013527578
  0
LINE
  8
_0-1_
  6
CONTINUOUS
 62
    7
 10
853.06841831425595
 20
936.19667013527578
 11
898.06841831425595
 21
981.19667013527578
  0
LINE
  8
_0-1_
  6
CONTINUOUS
 62
    7
 10
1111.818418314256
 20
981.19667013527578
 11
1066.818418314256
 21
936.19667013527578
  0
LINE
  8
_0-1_
  6
CONTINUOUS
 62
    7
 10
1066.818418314256
 20
936.19667013527578
 11
1111.818418314256
 21
891.19667013527578
  0
LINE
  8
_0-1_
  6
CONTINUOUS
 62
    7
 10
1325.568418314256
 20
891.19667013527578
 11
1280.568418314256
 21
936.19667013527578
  0
LINE
  8
_0-1_
  6
CONTINUOUS
 62
    7
 10
1280.568418314256
 20
936.19667013527578
 11
1325.568418314256
 21
981.19667013527578
  0
LINE
  8
_0-1_
  6
CONTINUOUS
 62
    7
 10
1539.318418314256
 20
981.19667013527578
 11
1494.318418314256
 21
936.19667013527578
  0
LINE
  8
_0-1_
  6
CONTINUOUS
 62
    7
 10
1494.318418314256
 20
936.19667013527578
 11
1539.318418314256
 21
891.19667013527578
  0
LINE
  8
_0-1_
  6
CONTINUOUS
 62
    7
 10
684.31841831425595
 20
891.19667013527578
 11
639.31841831425595
 21
846.19667013527578
  0
LINE
  8
_0-1_
  6
CONTINUOUS
 62
    7
 10
639.31841831425595
 20
846.19667013527578
 11
684.31841831425595
 21
801.19667013527578
  0
LINE
  8
_0-1_
  6
CONTINUOUS
 62
    7
 10
898.06841831425595
 20
801.19667013527578
 11
853.06841831425595
 21
846.19667013527578
  0
LINE
  8
_0-1_
  6
CONTINUOUS
 62
    7
 10
853.06841831425595
 20
846.19667013527578
 11
898.06841831425595
 21
891.19667013527578
  0
LINE
  8
_0-1_
  6
CONTINUOUS
 62
    7
 10
1111.818418314256
 20
891.19667013527578
 11
1066.818418314256
 21
846.19667013527578
  0
LINE
  8
_0-1_
  6
CONTINUOUS
 62
    7
 10
1066.818418314256
 20
846.19667013527578
 11
1111.818418314256
 21
801.19667013527578
  0
LINE
  8
_0-1_
  6
CONTINUOUS
 62
    7
 10
1325.568418314256
 20
801.19667013527578
 11
1280.568418314256
 21
846.19667013527578
  0
LINE
  8
_0-1_
  6
CONTINUOUS
 62
    7
 10
1280.568418314256
 20
846.19667013527578
 11
1325.568418314256
 21
891.19667013527578
  0
LINE
  8
_0-1_
  6
CONTINUOUS
 62
    7
 10
1539.318418314256
 20
891.19667013527578
 11
1494.318418314256
 21
846.19667013527578
  0
LINE
  8
_0-1_
  6
CONTINUOUS
 62
    7
 10
1494.318418314256
 20
846.19667013527578
 11
1539.318418314256
 21
801.19667013527578
  0
ENDSEC
  0
EOF
