  0
SECTION
  2
HEADER
  9
$ACADVER
  1
AC1009
  9
$INSBASE
 10
0
 20
0
 30
0
  9
$EXTMIN
 10
0
 20
0
  9
$EXTMAX
 10
2970
 20
2100
  9
$LIMMIN
 10
0
 20
0
  9
$LIMMAX
 10
2970
 20
2100
  9
$LTSCALE
 40
10
  0
ENDSEC
  0
SECTION
  2
TABLES
  0
TABLE
  2
LTYPE
 70
     9
  0
LTYPE
  2
CONTINUOUS
 70
    64
  3
実線
 72
    65
 73
     0
 40
0.0
  0
LTYPE
  2
DASHED1
 70
    64
  3
--  --  --  --  --  --  --  --  
 72
    65
 73
     2
 40
2.5
 49
1.25
 49
-1.25
  0
LTYPE
  2
DASHED2
 70
    64
  3
----    ----    ----    ----    
 72
    65
 73
     2
 40
5.0
 49
2.5
 49
-2.5
  0
LTYPE
  2
DASHED3
 70
    64
  3
------  ------  ------  ------  
 72
    65
 73
     2
 40
5.0
 49
3.75
 49
-1.25
  0
LTYPE
  2
CENTER1
 70
    64
  3
----- - ----- - ----- - ----- - 
 72
    65
 73
     4
 40
10.0
 49
6.25
 49
-1.25
 49
1.25
 49
-1.25
  0
LTYPE
  2
CENTER2
 70
    64
  3
----------  --  ----------  --  
 72
    65
 73
     4
 40
20.0
 49
12.5
 49
-2.5
 49
2.5
 49
-2.5
  0
LTYPE
  2
PHANTOM1
 70
    64
  3
--- - - --- - - --- - - --- - - 
 72
    65
 73
     6
 40
10.0
 49
3.25
 49
-1.25
 49
1.25
 49
-1.25
 49
1.25
 49
-1.25
  0
LTYPE
  2
PHANTOM2
 70
    64
  3
--------  -  -  --------  -  -  
 72
    65
 73
     6
 40
20.0
 49
10.0
 49
-2.5
 49
1.25
 49
-2.5
 49
1.25
 49
-2.5
  0
LTYPE
  2
DOT
 70
    64
  3
-   -   -   -   -   -   -   -   
 72
    65
 73
     2
 40
2.5
 49
0.625
 49
-1.875
  0
LTYPE
  2
DUMMY
 70
    64
  3
ダミー
 72
    65
 73
     0
 40
0.0
  0
LTYPE
  2
RAND1
 70
    64
  3
ランダム線1
 72
    65
 73
     4
 40
10.0
 49
1.0
 49
-2.0
 49
3.0
 49
-4.0
  0
LTYPE
  2
RAND2
 70
    64
  3
ランダム線2
 72
    65
 73
     4
 40
14.0
 49
2.0
 49
-3.0
 49
4.0
 49
-5.0
  0
LTYPE
  2
RAND3
 70
    64
  3
ランダム線3
 72
    65
 73
     4
 40
18.0
 49
3.0
 49
-4.0
 49
5.0
 49
-6.0
  0
LTYPE
  2
RAND4
 70
    64
  3
ランダム線4
 72
    65
 73
     4
 40
22.0
 49
4.0
 49
-5.0
 49
6.0
 49
-7.0
  0
LTYPE
  2
RAND5
 70
    64
  3
ランダム線5
 72
    65
 73
     4
 40
26.0
 49
5.0
 49
-6.0
 49
7.0
 49
-8.0
  0
LTYPE
  2
LONG1
 70
    64
  3
----------  --  ----------  --  
 72
    65
 73
     4
 40
40.0
 49
32.5
 49
-2.5
 49
2.5
 49
-2.5
  0
LTYPE
  2
LONG2
 70
    64
  3
--------  -  -  --------  -  -  
 72
    65
 73
     6
 40
40.0
 49
30.0
 49
-2.5
 49
1.25
 49
-2.5
 49
1.25
 49
-2.5
  0
LTYPE
  2
LONG3
 70
    64
  3
+++++++++++++++..+++++++++++++++
 72
    65
 73
     2
 40
40.0
 49
37.5
 49
-2.5
  0
LTYPE
  2
LONG4
 70
    64
  3
+++++++++++++++..+++++++++++++++
 72
    65
 73
     2
 40
80.0
 49
75.0
 49
-5.0
  0
LTYPE
  2
LONG5
 70
    64
  3
----------  --  ----------  --  
 72
    65
 73
     4
 40
60.0
 49
37.5
 49
-7.5
 49
7.5
 49
-7.5
  0
LTYPE
  2
dashed
 70
   64
  3
-------   -------------   ------
 72
   65
 73
    2
 40
7.5
 49
6
 49
-1.5
  0
LTYPE
  2
dashed_spaced
 70
   64
  3
----        --------        ----
 72
   65
 73
    2
 40
12
 49
6
 49
-6
  0
LTYPE
  2
long_dashed_dotted
 70
   64
  3
------------- --- --------------
 72
   65
 73
    4
 40
15.25
 49
12
 49
-1.5
 49
0.25
 49
-1.5
  0
LTYPE
  2
long_dashed_double-dotted
 70
   64
  3
----------- --- --- ------------
 72
   65
 73
    6
 40
17
 49
12
 49
-1.5
 49
0.25
 49
-1.5
 49
0.25
 49
-1.5
  0
LTYPE
  2
long_dashed_triplicate-dotted
 70
   64
  3
--------- --- --- --- ----------
 72
   65
 73
    8
 40
18.75
 49
12
 49
-1.5
 49
0.25
 49
-1.5
 49
0.25
 49
-1.5
 49
0.25
 49
-1.5
  0
LTYPE
  2
dotted
 70
   64
  3
   -       -       -       -    
 72
   65
 73
    2
 40
1.75
 49
0.25
 49
-1.5
  0
LTYPE
  2
chain
 70
   64
  3
-------------- -- --------------
 72
   65
 73
    4
 40
18.5
 49
12
 49
-1.5
 49
3.5
 49
-1.5
  0
LTYPE
  2
chain_double_dash
 70
   64
  3
------------ -- -- -------------
 72
   65
 73
    6
 40
23.5
 49
12
 49
-1.5
 49
3.5
 49
-1.5
 49
3.5
 49
-1.5
  0
LTYPE
  2
dashed_dotted
 70
   64
  3
-----------     -     ----------
 72
   65
 73
    4
 40
9.25
 49
6
 49
-1.5
 49
0.25
 49
-1.5
  0
LTYPE
  2
double-dashed_dotted
 70
   64
  3
------   -----------   -   -----
 72
   65
 73
    6
 40
16.75
 49
6
 49
-1.5
 49
6
 49
-1.5
 49
0.25
 49
-1.5
  0
LTYPE
  2
dashed_double-dotted
 70
   64
  3
---------    -    -    ---------
 72
   65
 73
    6
 40
11
 49
6
 49
-1.5
 49
0.25
 49
-1.5
 49
0.25
 49
-1.5
  0
LTYPE
  2
double-dashed_double-dotted
 70
   64
  3
-----   ---------   -   -   ----
 72
   65
 73
    8
 40
18.5
 49
6
 49
-1.5
 49
6
 49
-1.5
 49
0.25
 49
-1.5
 49
0.25
 49
-1.5
  0
LTYPE
  2
dashed_triplicate-dotted
 70
   64
  3
-------    -    -    -    ------
 72
   65
 73
    8
 40
12.75
 49
6
 49
-1.5
 49
0.25
 49
-1.5
 49
0.25
 49
-1.5
 49
0.25
 49
-1.5
  0
LTYPE
  2
double-dashed_triplicate-dotted
 70
   64
  3
-----  ---------  -  -  -  -----
 72
   65
 73
   10
 40
20.25
 49
6
 49
-1.5
 49
6
 49
-1.5
 49
0.25
 49
-1.5
 49
0.25
 49
-1.5
 49
0.25
 49
-1.5
  0
LTYPE
  2
undefined
 70
   64
  3
--------------------------------
 72
   65
 73
    0
 40
0
  0
ENDTAB
  0
TABLE
  2
STYLE
  5
3
100
AcDbSymbolTable
 70
     1
  0
STYLE
  5
10
100
AcDbSymbolTableRecord
100
AcDbTextStyleTableRecord
  2
STANDARD
 70
     0
 40
0.0
 41
1.0
 50
0.0
 71
     0
 42
0.2
  3
txt
  4
bigfont.shx
  0
STYLE
  5
26
100
AcDbSymbolTableRecord
100
AcDbTextStyleTableRecord
  2
TATEGAKI
 70
    68
 40
0.0
 41
1.0
 50
0.0
 71
     0
 42
1.0
  3
txt
  4
bigfont.shx
  0
ENDTAB
  0
TABLE
  2
LAYER
 70
    3
  0
LAYER
  2
_0-0_
 70
   64
 62
    7
  6
CONTINUOUS
  0
LAYER
  2
_0-1_
 70
   64
 62
    7
  6
CONTINUOUS
  0
LAYER
  2
ADD_LINE
 70
   64
 62
    7
  6
CONTINUOUS
  0
ENDTAB
  0
ENDSEC
  0
SECTION
  2
BLOCKS
  0
ENDSEC
  0
SECTION
  2
ENTITIES
  0
LINE
  8
_0-0_
  6
CONTINUOUS
 62
    9
 10
757.73673257023927
 20
689.85431841831428
 11
1757.7367325702394
 21
689.85431841831428
  0
LINE
  8
_0-0_
  6
CONTINUOUS
 62
    9
 10
1757.7367325702394
 20
689.85431841831428
 11
1757.7367325702394
 21
1689.8543184183143
  0
LINE
  8
_0-0_
  6
CONTINUOUS
 62
    9
 10
1757.7367325702394
 20
1689.8543184183143
 11
757.73673257023927
 21
1689.8543184183143
  0
LINE
  8
_0-0_
  6
CONTINUOUS
 62
    9
 10
757.73673257023927
 20
1689.8543184183143
 11
757.73673257023927
 21
689.85431841831428
  0
LINE
  8
_0-0_
  6
CONTINUOUS
 62
    9
 10
1007.7367325702393
 20
1689.8543184183143
 11
1007.7367325702393
 21
689.85431841831428
  0
LINE
  8
_0-0_
  6
CONTINUOUS
 62
    9
 10
1257.7367325702394
 20
1689.8543184183143
 11
1257.7367325702394
 21
689.85431841831428
  0
LINE
  8
_0-0_
  6
CONTINUOUS
 62
    9
 10
1507.7367325702392
 20
1689.8543184183143
 11
1507.7367325702392
 21
689.85431841831428
  0
LINE
  8
_0-0_
  6
CONTINUOUS
 62
    9
 10
1757.7367325702394
 20
1439.8543184183143
 11
757.73673257023927
 21
1439.8543184183143
  0
LINE
  8
_0-0_
  6
CONTINUOUS
 62
    9
 10
1757.7367325702394
 20
1189.8543184183143
 11
757.73673257023927
 21
1189.8543184183143
  0
LINE
  8
_0-0_
  6
CONTINUOUS
 62
    9
 10
1757.7367325702394
 20
939.85431841831428
 11
757.73673257023927
 21
939.85431841831428
  0
CIRCLE
  8
_0-0_
  6
CONTINUOUS
 62
    9
 10
1007.7367325702393
 20
1439.8543184183143
 40
250
  0
CIRCLE
  8
_0-0_
  6
CONTINUOUS
 62
    9
 10
1507.7367325702392
 20
1439.8543184183143
 40
250
  0
CIRCLE
  8
_0-0_
  6
CONTINUOUS
 62
    9
 10
1507.7367325702392
 20
939.85431841831428
 40
250.00000000000003
  0
CIRCLE
  8
_0-0_
  6
CONTINUOUS
 62
    9
 10
1007.7367325702393
 20
939.85431841831428
 40
250
  0
LINE
  8
_0-0_
  6
CONTINUOUS
 62
    9
 10
1007.7367325702393
 20
1689.8543184183143
 11
1257.7367325702394
 21
1439.8543184183143
  0
LINE
  8
_0-0_
  6
CONTINUOUS
 62
    9
 10
1257.7367325702394
 20
1439.8543184183143
 11
1007.7367325702393
 21
1189.8543184183143
  0
LINE
  8
_0-0_
  6
CONTINUOUS
 62
    9
 10
1007.7367325702393
 20
1189.8543184183143
 11
757.73673257023927
 21
1439.8543184183143
  0
LINE
  8
_0-0_
  6
CONTINUOUS
 62
    9
 10
757.73673257023927
 20
1439.8543184183143
 11
1007.7367325702393
 21
1689.8543184183143
  0
LINE
  8
_0-0_
  6
CONTINUOUS
 62
    9
 10
1507.7367325702392
 20
1689.8543184183143
 11
1257.7367325702394
 21
1439.8543184183143
  0
LINE
  8
_0-0_
  6
CONTINUOUS
 62
    9
 10
1257.7367325702394
 20
1439.8543184183143
 11
1507.7367325702392
 21
1189.8543184183143
  0
LINE
  8
_0-0_
  6
CONTINUOUS
 62
    9
 10
1507.7367325702392
 20
1189.8543184183143
 11
1757.7367325702394
 21
1439.8543184183143
  0
LINE
  8
_0-0_
  6
CONTINUOUS
 62
    9
 10
1757.7367325702392
 20
1439.8543184183143
 11
1507.7367325702392
 21
1689.8543184183143
  0
LINE
  8
_0-0_
  6
CONTINUOUS
 62
    9
 10
1007.7367325702393
 20
1189.8543184183143
 11
757.73673257023927
 21
939.85431841831428
  0
LINE
  8
_0-0_
  6
CONTINUOUS
 62
    9
 10
757.73673257023927
 20
939.85431841831428
 11
1007.7367325702393
 21
689.85431841831428
  0
LINE
  8
_0-0_
  6
CONTINUOUS
 62
    9
 10
1007.7367325702393
 20
689.85431841831428
 11
1257.7367325702394
 21
939.85431841831428
  0
LINE
  8
_0-0_
  6
CONTINUOUS
 62
    9
 10
1257.7367325702394
 20
939.85431841831428
 11
1007.7367325702392
 21
1189.8543184183143
  0
LINE
  8
_0-0_
  6
CONTINUOUS
 62
    9
 10
1507.7367325702392
 20
1189.8543184183143
 11
1257.7367325702394
 21
939.85431841831428
  0
LINE
  8
_0-0_
  6
CONTINUOUS
 62
    9
 10
1257.7367325702392
 20
939.85431841831428
 11
1507.7367325702392
 21
689.85431841831428
  0
LINE
  8
_0-0_
  6
CONTINUOUS
 62
    9
 10
1507.7367325702392
 20
689.85431841831428
 11
1757.7367325702394
 21
939.85431841831428
  0
LINE
  8
_0-0_
  6
CONTINUOUS
 62
    9
 10
1757.7367325702394
 20
939.85431841831428
 11
1507.7367325702392
 21
1189.8543184183143
  0
LINE
  8
_0-0_
  6
CONTINUOUS
 62
    9
 10
757.73673257023927
 20
1689.8543184183143
 11
1257.7367325702394
 21
1189.8543184183143
  0
LINE
  8
_0-0_
  6
CONTINUOUS
 62
    9
 10
1257.7367325702394
 20
1189.8543184183143
 11
1757.7367325702394
 21
689.85431841831428
  0
LINE
  8
_0-0_
  6
CONTINUOUS
 62
    9
 10
1757.7367325702394
 20
1689.8543184183143
 11
1257.7367325702394
 21
1189.8543184183143
  0
LINE
  8
_0-0_
  6
CONTINUOUS
 62
    9
 10
1257.7367325702394
 20
1189.8543184183143
 11
757.73673257023927
 21
689.85431841831428
  0
LINE
  8
_0-0_
  6
CONTINUOUS
 62
    9
 10
1257.7367325702394
 20
1689.8543184183143
 11
757.73673257023927
 21
1189.8543184183143
  0
LINE
  8
_0-0_
  6
CONTINUOUS
 62
    9
 10
757.73673257023927
 20
1189.8543184183143
 11
1257.7367325702394
 21
689.85431841831428
  0
LINE
  8
_0-0_
  6
CONTINUOUS
 62
    9
 10
1257.7367325702394
 20
689.85431841831428
 11
1757.7367325702394
 21
1189.8543184183143
  0
LINE
  8
_0-0_
  6
CONTINUOUS
 62
    9
 10
1757.7367325702394
 20
1189.8543184183143
 11
1257.7367325702394
 21
1689.8543184183143
  0
LINE
  8
_0-0_
  6
CONTINUOUS
 62
    9
 10
830.96003727360244
 20
1616.6310137149512
 11
1184.5134278668761
 21
1616.6310137149512
  0
LINE
  8
_0-0_
  6
CONTINUOUS
 62
    9
 10
1184.5134278668761
 20
1616.6310137149512
 11
1184.5134278668761
 21
1263.0776231216773
  0
LINE
  8
_0-0_
  6
CONTINUOUS
 62
    9
 10
1184.5134278668761
 20
1263.0776231216773
 11
830.96003727360255
 21
1263.0776231216773
  0
LINE
  8
_0-0_
  6
CONTINUOUS
 62
    9
 10
830.96003727360221
 20
1263.0776231216773
 11
830.96003727360244
 21
1616.6310137149512
  0
LINE
  8
_0-0_
  6
CONTINUOUS
 62
    9
 10
830.96003727360244
 20
1513.0776231216773
 11
1184.5134278668761
 21
1513.0776231216773
  0
LINE
  8
_0-0_
  6
CONTINUOUS
 62
    9
 10
830.96003727360221
 20
1366.6310137149512
 11
1184.5134278668761
 21
1366.6310137149512
  0
LINE
  8
_0-0_
  6
CONTINUOUS
 62
    9
 10
934.51342786687621
 20
1616.6310137149512
 11
934.5134278668761
 21
1263.0776231216773
  0
LINE
  8
_0-0_
  6
CONTINUOUS
 62
    9
 10
1080.9600372736024
 20
1616.6310137149512
 11
1080.9600372736027
 21
1263.0776231216773
  0
CIRCLE
  8
_0-0_
  6
CONTINUOUS
 62
    9
 10
1007.7367325702393
 20
1616.6310137149512
 40
73.223304703363112
  0
CIRCLE
  8
_0-0_
  6
CONTINUOUS
 62
    9
 10
1184.5134278668761
 20
1439.8543184183143
 40
73.223304703363084
  0
CIRCLE
  8
_0-0_
  6
CONTINUOUS
 62
    9
 10
1007.7367325702393
 20
1263.0776231216773
 40
73.223304703363183
  0
CIRCLE
  8
_0-0_
  6
CONTINUOUS
 62
    9
 10
830.96003727360221
 20
1439.8543184183143
 40
73.22330470336297
  0
LINE
  8
_0-0_
  6
CONTINUOUS
 62
    9
 10
1684.5134278668763
 20
1616.6310137149512
 11
1330.9600372736027
 21
1616.6310137149512
  0
LINE
  8
_0-0_
  6
CONTINUOUS
 62
    9
 10
1330.9600372736027
 20
1616.6310137149512
 11
1330.9600372736027
 21
1263.0776231216773
  0
LINE
  8
_0-0_
  6
CONTINUOUS
 62
    9
 10
1330.9600372736027
 20
1263.0776231216773
 11
1684.5134278668761
 21
1263.0776231216773
  0
LINE
  8
_0-0_
  6
CONTINUOUS
 62
    9
 10
1684.5134278668763
 20
1263.0776231216773
 11
1684.5134278668763
 21
1616.6310137149512
  0
LINE
  8
_0-0_
  6
CONTINUOUS
 62
    9
 10
1684.5134278668763
 20
1513.0776231216773
 11
1330.9600372736027
 21
1513.0776231216773
  0
LINE
  8
_0-0_
  6
CONTINUOUS
 62
    9
 10
1684.5134278668763
 20
1366.6310137149512
 11
1330.9600372736027
 21
1366.6310137149512
  0
LINE
  8
_0-0_
  6
CONTINUOUS
 62
    9
 10
1580.9600372736027
 20
1616.6310137149512
 11
1580.9600372736027
 21
1263.0776231216773
  0
LINE
  8
_0-0_
  6
CONTINUOUS
 62
    9
 10
1434.5134278668763
 20
1616.6310137149512
 11
1434.5134278668761
 21
1263.0776231216773
  0
CIRCLE
  8
_0-0_
  6
CONTINUOUS
 62
    9
 10
1507.7367325702392
 20
1263.0776231216773
 40
73.223304703363183
  0
CIRCLE
  8
_0-0_
  6
CONTINUOUS
 62
    9
 10
1330.9600372736027
 20
1439.8543184183143
 40
73.223304703363084
  0
CIRCLE
  8
_0-0_
  6
CONTINUOUS
 62
    9
 10
1507.7367325702392
 20
1616.6310137149512
 40
73.223304703363112
  0
CIRCLE
  8
_0-0_
  6
CONTINUOUS
 62
    9
 10
1684.5134278668763
 20
1439.8543184183143
 40
73.22330470336297
  0
LINE
  8
_0-0_
  6
CONTINUOUS
 62
    9
 10
1684.5134278668763
 20
763.07762312167733
 11
1684.5134278668761
 21
1116.6310137149512
  0
LINE
  8
_0-0_
  6
CONTINUOUS
 62
    9
 10
1684.5134278668761
 20
1116.6310137149512
 11
1330.9600372736027
 21
1116.6310137149512
  0
LINE
  8
_0-0_
  6
CONTINUOUS
 62
    9
 10
1330.9600372736027
 20
1116.6310137149512
 11
1330.9600372736027
 21
763.07762312167756
  0
LINE
  8
_0-0_
  6
CONTINUOUS
 62
    9
 10
1330.9600372736027
 20
763.07762312167722
 11
1684.5134278668763
 21
763.07762312167733
  0
LINE
  8
_0-0_
  6
CONTINUOUS
 62
    9
 10
1580.9600372736022
 20
763.07762312167733
 11
1580.9600372736027
 21
1116.6310137149512
  0
LINE
  8
_0-0_
  6
CONTINUOUS
 62
    9
 10
1434.5134278668763
 20
763.07762312167722
 11
1434.5134278668761
 21
1116.6310137149512
  0
LINE
  8
_0-0_
  6
CONTINUOUS
 62
    9
 10
1684.5134278668763
 20
866.63101371495122
 11
1330.9600372736027
 21
866.631013714951
  0
LINE
  8
_0-0_
  6
CONTINUOUS
 62
    9
 10
1684.5134278668763
 20
1013.0776231216773
 11
1330.9600372736027
 21
1013.0776231216773
  0
CIRCLE
  8
_0-0_
  6
CONTINUOUS
 62
    9
 10
1330.9600372736027
 20
939.85431841831428
 40
73.223304703363169
  0
CIRCLE
  8
_0-0_
  6
CONTINUOUS
 62
    9
 10
1507.7367325702392
 20
1116.6310137149512
 40
73.223304703363056
  0
CIRCLE
  8
_0-0_
  6
CONTINUOUS
 62
    9
 10
1684.5134278668763
 20
939.85431841831428
 40
73.223304703363098
  0
CIRCLE
  8
_0-0_
  6
CONTINUOUS
 62
    9
 10
1507.7367325702392
 20
763.07762312167722
 40
73.223304703362956
  0
LINE
  8
_0-0_
  6
CONTINUOUS
 62
    9
 10
830.96003727360244
 20
763.07762312167733
 11
1184.5134278668761
 21
763.07762312167733
  0
LINE
  8
_0-0_
  6
CONTINUOUS
 62
    9
 10
1184.5134278668761
 20
763.07762312167733
 11
1184.5134278668761
 21
1116.6310137149512
  0
LINE
  8
_0-0_
  6
CONTINUOUS
 62
    9
 10
1184.5134278668761
 20
1116.6310137149512
 11
830.96003727360255
 21
1116.6310137149512
  0
LINE
  8
_0-0_
  6
CONTINUOUS
 62
    9
 10
830.96003727360221
 20
1116.6310137149512
 11
830.96003727360244
 21
763.07762312167733
  0
LINE
  8
_0-0_
  6
CONTINUOUS
 62
    9
 10
830.96003727360244
 20
866.63101371495122
 11
1184.5134278668761
 21
866.63101371495122
  0
LINE
  8
_0-0_
  6
CONTINUOUS
 62
    9
 10
830.96003727360221
 20
1013.0776231216772
 11
1184.5134278668761
 21
1013.0776231216773
  0
LINE
  8
_0-0_
  6
CONTINUOUS
 62
    9
 10
934.51342786687621
 20
763.07762312167733
 11
934.5134278668761
 21
1116.6310137149512
  0
LINE
  8
_0-0_
  6
CONTINUOUS
 62
    9
 10
1080.9600372736024
 20
763.07762312167733
 11
1080.9600372736027
 21
1116.6310137149512
  0
CIRCLE
  8
_0-0_
  6
CONTINUOUS
 62
    9
 10
1007.7367325702393
 20
1116.6310137149512
 40
73.223304703363183
  0
CIRCLE
  8
_0-0_
  6
CONTINUOUS
 62
    9
 10
1184.5134278668761
 20
939.85431841831428
 40
73.223304703363084
  0
CIRCLE
  8
_0-0_
  6
CONTINUOUS
 62
    9
 10
1007.7367325702393
 20
763.07762312167733
 40
73.223304703363112
  0
CIRCLE
  8
_0-0_
  6
CONTINUOUS
 62
    9
 10
830.96003727360221
 20
939.85431841831428
 40
73.22330470336297
  0
LINE
  8
_0-1_
  6
CONTINUOUS
 62
    7
 10
830.96003727360244
 20
1616.6310137149512
 11
1184.5134278668761
 21
1616.6310137149512
  0
LINE
  8
_0-1_
  6
CONTINUOUS
 62
    7
 10
1184.5134278668761
 20
1616.6310137149512
 11
1184.5134278668761
 21
1263.0776231216773
  0
LINE
  8
_0-1_
  6
CONTINUOUS
 62
    7
 10
1184.5134278668761
 20
1263.0776231216773
 11
830.96003727360221
 21
1263.0776231216776
  0
LINE
  8
_0-1_
  6
CONTINUOUS
 62
    7
 10
830.96003727360221
 20
1263.0776231216776
 11
830.96003727360244
 21
1616.6310137149512
  0
LINE
  8
_0-1_
  6
CONTINUOUS
 62
    7
 10
1007.7367325702393
 20
1689.8543184183143
 11
757.73673257023927
 21
1439.8543184183143
  0
LINE
  8
_0-1_
  6
CONTINUOUS
 62
    7
 10
757.73673257023927
 20
1439.8543184183143
 11
1007.7367325702392
 21
1189.8543184183143
  0
LINE
  8
_0-1_
  6
CONTINUOUS
 62
    7
 10
1007.7367325702392
 20
1189.8543184183143
 11
1257.7367325702394
 21
1439.8543184183143
  0
LINE
  8
_0-1_
  6
CONTINUOUS
 62
    7
 10
1257.7367325702394
 20
1439.8543184183143
 11
1007.7367325702393
 21
1689.8543184183143
  0
LINE
  8
_0-1_
  6
CONTINUOUS
 62
    7
 10
830.96003727360244
 20
1616.6310137149512
 11
1184.5134278668761
 21
1263.0776231216773
  0
LINE
  8
_0-1_
  6
CONTINUOUS
 62
    7
 10
830.96003727360255
 20
1263.0776231216773
 11
1184.5134278668761
 21
1616.6310137149512
  0
LINE
  8
_0-1_
  6
CONTINUOUS
 62
    7
 10
1007.7367325702393
 20
1689.8543184183143
 11
1007.7367325702393
 21
1189.8543184183145
  0
LINE
  8
_0-1_
  6
CONTINUOUS
 62
    7
 10
1257.7367325702394
 20
1439.8543184183143
 11
757.73673257023927
 21
1439.8543184183143
  0
LINE
  8
_0-1_
  6
CONTINUOUS
 62
    7
 10
830.96003727360244
 20
1513.0776231216771
 11
904.18334197696527
 21
1439.8543184183143
  0
LINE
  8
_0-1_
  6
CONTINUOUS
 62
    7
 10
904.18334197696527
 20
1439.8543184183143
 11
830.96003727360221
 21
1366.6310137149512
  0
LINE
  8
_0-1_
  6
CONTINUOUS
 62
    7
 10
1007.7367325702393
 20
1336.3009278250406
 11
934.5134278668761
 21
1263.0776231216776
  0
LINE
  8
_0-1_
  6
CONTINUOUS
 62
    7
 10
1007.7367325702393
 20
1336.3009278250406
 11
1080.9600372736027
 21
1263.0776231216776
  0
LINE
  8
_0-1_
  6
CONTINUOUS
 62
    7
 10
1184.5134278668761
 20
1366.6310137149512
 11
1111.2901231635133
 21
1439.8543184183143
  0
LINE
  8
_0-1_
  6
CONTINUOUS
 62
    7
 10
1111.2901231635133
 20
1439.8543184183143
 11
1184.5134278668761
 21
1513.0776231216773
  0
LINE
  8
_0-1_
  6
CONTINUOUS
 62
    7
 10
1080.9600372736024
 20
1616.6310137149512
 11
1007.7367325702393
 21
1543.4077090115879
  0
LINE
  8
_0-1_
  6
CONTINUOUS
 62
    7
 10
1007.7367325702393
 20
1543.4077090115879
 11
934.51342786687621
 21
1616.6310137149512
  0
LINE
  8
_0-1_
  6
CONTINUOUS
 62
    7
 10
830.96003727360244
 20
1513.0776231216771
 11
934.51342786687633
 21
1513.0776231216773
  0
LINE
  8
_0-1_
  6
CONTINUOUS
 62
    7
 10
934.51342786687633
 20
1513.0776231216773
 11
934.51342786687621
 21
1616.6310137149512
  0
LINE
  8
_0-1_
  6
CONTINUOUS
 62
    7
 10
1080.9600372736024
 20
1616.6310137149512
 11
1080.9600372736024
 21
1513.0776231216773
  0
LINE
  8
_0-1_
  6
CONTINUOUS
 62
    7
 10
1080.9600372736024
 20
1513.0776231216773
 11
1184.5134278668761
 21
1513.0776231216773
  0
LINE
  8
_0-1_
  6
CONTINUOUS
 62
    7
 10
1184.5134278668761
 20
1366.6310137149512
 11
1080.9600372736024
 21
1366.6310137149512
  0
LINE
  8
_0-1_
  6
CONTINUOUS
 62
    7
 10
1080.9600372736024
 20
1366.6310137149512
 11
1080.9600372736027
 21
1263.0776231216773
  0
LINE
  8
_0-1_
  6
CONTINUOUS
 62
    7
 10
830.96003727360221
 20
1366.6310137149512
 11
934.51342786687633
 21
1366.6310137149512
  0
LINE
  8
_0-1_
  6
CONTINUOUS
 62
    7
 10
934.51342786687633
 20
1366.6310137149512
 11
934.5134278668761
 21
1263.0776231216776
  0
LINE
  8
_0-1_
  6
CONTINUOUS
 62
    7
 10
1684.5134278668763
 20
1616.6310137149512
 11
1330.9600372736027
 21
1616.6310137149512
  0
LINE
  8
_0-1_
  6
CONTINUOUS
 62
    7
 10
1330.9600372736027
 20
1616.6310137149512
 11
1330.9600372736027
 21
1263.0776231216773
  0
LINE
  8
_0-1_
  6
CONTINUOUS
 62
    7
 10
1330.9600372736027
 20
1263.0776231216773
 11
1684.5134278668763
 21
1263.0776231216776
  0
LINE
  8
_0-1_
  6
CONTINUOUS
 62
    7
 10
1684.5134278668763
 20
1263.0776231216776
 11
1684.5134278668763
 21
1616.6310137149512
  0
LINE
  8
_0-1_
  6
CONTINUOUS
 62
    7
 10
1507.7367325702392
 20
1689.8543184183143
 11
1757.7367325702392
 21
1439.8543184183143
  0
LINE
  8
_0-1_
  6
CONTINUOUS
 62
    7
 10
1757.7367325702392
 20
1439.8543184183143
 11
1507.7367325702394
 21
1189.8543184183143
  0
LINE
  8
_0-1_
  6
CONTINUOUS
 62
    7
 10
1507.7367325702394
 20
1189.8543184183143
 11
1257.7367325702394
 21
1439.8543184183143
  0
LINE
  8
_0-1_
  6
CONTINUOUS
 62
    7
 10
1257.7367325702394
 20
1439.8543184183143
 11
1507.7367325702392
 21
1689.8543184183143
  0
LINE
  8
_0-1_
  6
CONTINUOUS
 62
    7
 10
1684.5134278668763
 20
1616.6310137149512
 11
1330.9600372736027
 21
1263.0776231216773
  0
LINE
  8
_0-1_
  6
CONTINUOUS
 62
    7
 10
1684.5134278668761
 20
1263.0776231216773
 11
1330.9600372736027
 21
1616.6310137149512
  0
LINE
  8
_0-1_
  6
CONTINUOUS
 62
    7
 10
1507.7367325702392
 20
1689.8543184183143
 11
1507.7367325702392
 21
1189.8543184183145
  0
LINE
  8
_0-1_
  6
CONTINUOUS
 62
    7
 10
1257.7367325702394
 20
1439.8543184183143
 11
1757.7367325702392
 21
1439.8543184183143
  0
LINE
  8
_0-1_
  6
CONTINUOUS
 62
    7
 10
1684.5134278668763
 20
1513.0776231216771
 11
1611.2901231635135
 21
1439.8543184183143
  0
LINE
  8
_0-1_
  6
CONTINUOUS
 62
    7
 10
1611.2901231635135
 20
1439.8543184183143
 11
1684.5134278668763
 21
1366.6310137149512
  0
LINE
  8
_0-1_
  6
CONTINUOUS
 62
    7
 10
1507.7367325702392
 20
1336.3009278250406
 11
1580.9600372736027
 21
1263.0776231216776
  0
LINE
  8
_0-1_
  6
CONTINUOUS
 62
    7
 10
1507.7367325702392
 20
1336.3009278250406
 11
1434.5134278668761
 21
1263.0776231216776
  0
LINE
  8
_0-1_
  6
CONTINUOUS
 62
    7
 10
1330.9600372736027
 20
1366.6310137149512
 11
1404.1833419769655
 21
1439.8543184183143
  0
LINE
  8
_0-1_
  6
CONTINUOUS
 62
    7
 10
1404.1833419769655
 20
1439.8543184183143
 11
1330.9600372736027
 21
1513.0776231216773
  0
LINE
  8
_0-1_
  6
CONTINUOUS
 62
    7
 10
1434.5134278668763
 20
1616.6310137149512
 11
1507.7367325702392
 21
1543.4077090115879
  0
LINE
  8
_0-1_
  6
CONTINUOUS
 62
    7
 10
1507.7367325702392
 20
1543.4077090115879
 11
1580.9600372736027
 21
1616.6310137149512
  0
LINE
  8
_0-1_
  6
CONTINUOUS
 62
    7
 10
1684.5134278668763
 20
1513.0776231216771
 11
1580.9600372736022
 21
1513.0776231216773
  0
LINE
  8
_0-1_
  6
CONTINUOUS
 62
    7
 10
1580.9600372736022
 20
1513.0776231216773
 11
1580.9600372736027
 21
1616.6310137149512
  0
LINE
  8
_0-1_
  6
CONTINUOUS
 62
    7
 10
1434.5134278668763
 20
1616.6310137149512
 11
1434.5134278668763
 21
1513.0776231216773
  0
LINE
  8
_0-1_
  6
CONTINUOUS
 62
    7
 10
1434.5134278668763
 20
1513.0776231216773
 11
1330.9600372736027
 21
1513.0776231216773
  0
LINE
  8
_0-1_
  6
CONTINUOUS
 62
    7
 10
1330.9600372736027
 20
1366.6310137149512
 11
1434.5134278668763
 21
1366.6310137149512
  0
LINE
  8
_0-1_
  6
CONTINUOUS
 62
    7
 10
1434.5134278668763
 20
1366.6310137149512
 11
1434.5134278668761
 21
1263.0776231216773
  0
LINE
  8
_0-1_
  6
CONTINUOUS
 62
    7
 10
1684.5134278668763
 20
1366.6310137149512
 11
1580.9600372736022
 21
1366.6310137149512
  0
LINE
  8
_0-1_
  6
CONTINUOUS
 62
    7
 10
1580.9600372736022
 20
1366.6310137149512
 11
1580.9600372736027
 21
1263.0776231216776
  0
LINE
  8
_0-1_
  6
CONTINUOUS
 62
    7
 10
1684.5134278668763
 20
763.07762312167756
 11
1684.5134278668763
 21
1116.6310137149512
  0
LINE
  8
_0-1_
  6
CONTINUOUS
 62
    7
 10
1684.5134278668763
 20
1116.6310137149515
 11
1330.9600372736027
 21
1116.6310137149512
  0
LINE
  8
_0-1_
  6
CONTINUOUS
 62
    7
 10
1330.9600372736027
 20
1116.6310137149512
 11
1330.9600372736027
 21
763.07762312167733
  0
LINE
  8
_0-1_
  6
CONTINUOUS
 62
    7
 10
1330.9600372736027
 20
763.07762312167733
 11
1684.5134278668763
 21
763.07762312167756
  0
LINE
  8
_0-1_
  6
CONTINUOUS
 62
    7
 10
1757.7367325702394
 20
939.85431841831451
 11
1507.7367325702394
 21
689.85431841831439
  0
LINE
  8
_0-1_
  6
CONTINUOUS
 62
    7
 10
1507.7367325702394
 20
689.85431841831439
 11
1257.7367325702394
 21
939.85431841831428
  0
LINE
  8
_0-1_
  6
CONTINUOUS
 62
    7
 10
1257.7367325702394
 20
939.85431841831428
 11
1507.7367325702394
 21
1189.8543184183145
  0
LINE
  8
_0-1_
  6
CONTINUOUS
 62
    7
 10
1507.7367325702394
 20
1189.8543184183145
 11
1757.7367325702394
 21
939.85431841831451
  0
LINE
  8
_0-1_
  6
CONTINUOUS
 62
    7
 10
1684.5134278668763
 20
763.07762312167756
 11
1330.9600372736027
 21
1116.6310137149512
  0
LINE
  8
_0-1_
  6
CONTINUOUS
 62
    7
 10
1330.9600372736027
 20
763.07762312167768
 11
1684.5134278668763
 21
1116.6310137149512
  0
LINE
  8
_0-1_
  6
CONTINUOUS
 62
    7
 10
1757.7367325702394
 20
939.85431841831451
 11
1257.7367325702396
 21
939.85431841831428
  0
LINE
  8
_0-1_
  6
CONTINUOUS
 62
    7
 10
1507.7367325702394
 20
1189.8543184183145
 11
1507.7367325702394
 21
689.85431841831439
  0
LINE
  8
_0-1_
  6
CONTINUOUS
 62
    7
 10
1580.9600372736027
 20
763.07762312167756
 11
1507.7367325702394
 21
836.30092782504039
  0
LINE
  8
_0-1_
  6
CONTINUOUS
 62
    7
 10
1507.7367325702394
 20
836.30092782504039
 11
1434.5134278668763
 21
763.07762312167733
  0
LINE
  8
_0-1_
  6
CONTINUOUS
 62
    7
 10
1404.1833419769659
 20
939.85431841831439
 11
1330.9600372736027
 21
866.63101371495122
  0
LINE
  8
_0-1_
  6
CONTINUOUS
 62
    7
 10
1404.1833419769659
 20
939.85431841831439
 11
1330.9600372736027
 21
1013.0776231216777
  0
LINE
  8
_0-1_
  6
CONTINUOUS
 62
    7
 10
1434.5134278668763
 20
1116.6310137149512
 11
1507.7367325702394
 21
1043.4077090115884
  0
LINE
  8
_0-1_
  6
CONTINUOUS
 62
    7
 10
1507.7367325702394
 20
1043.4077090115884
 11
1580.9600372736027
 21
1116.6310137149512
  0
LINE
  8
_0-1_
  6
CONTINUOUS
 62
    7
 10
1684.5134278668763
 20
1013.0776231216776
 11
1611.2901231635133
 21
939.85431841831439
  0
LINE
  8
_0-1_
  6
CONTINUOUS
 62
    7
 10
1611.2901231635133
 20
939.85431841831439
 11
1684.5134278668763
 21
866.63101371495134
  0
LINE
  8
_0-1_
  6
CONTINUOUS
 62
    7
 10
1580.9600372736027
 20
763.07762312167756
 11
1580.9600372736027
 21
866.63101371495145
  0
LINE
  8
_0-1_
  6
CONTINUOUS
 62
    7
 10
1580.9600372736027
 20
866.63101371495145
 11
1684.5134278668763
 21
866.63101371495134
  0
LINE
  8
_0-1_
  6
CONTINUOUS
 62
    7
 10
1684.5134278668763
 20
1013.0776231216776
 11
1580.9600372736027
 21
1013.0776231216776
  0
LINE
  8
_0-1_
  6
CONTINUOUS
 62
    7
 10
1580.9600372736027
 20
1013.0776231216776
 11
1580.9600372736027
 21
1116.6310137149512
  0
LINE
  8
_0-1_
  6
CONTINUOUS
 62
    7
 10
1434.5134278668763
 20
1116.6310137149512
 11
1434.5134278668763
 21
1013.0776231216776
  0
LINE
  8
_0-1_
  6
CONTINUOUS
 62
    7
 10
1434.5134278668763
 20
1013.0776231216776
 11
1330.9600372736027
 21
1013.0776231216777
  0
LINE
  8
_0-1_
  6
CONTINUOUS
 62
    7
 10
1434.5134278668763
 20
763.07762312167733
 11
1434.5134278668763
 21
866.63101371495145
  0
LINE
  8
_0-1_
  6
CONTINUOUS
 62
    7
 10
1434.5134278668763
 20
866.63101371495145
 11
1330.9600372736027
 21
866.63101371495122
  0
LINE
  8
_0-1_
  6
CONTINUOUS
 62
    7
 10
830.96003727360244
 20
763.07762312167733
 11
1184.5134278668761
 21
763.07762312167733
  0
LINE
  8
_0-1_
  6
CONTINUOUS
 62
    7
 10
1184.5134278668761
 20
763.07762312167733
 11
1184.5134278668761
 21
1116.6310137149512
  0
LINE
  8
_0-1_
  6
CONTINUOUS
 62
    7
 10
1184.5134278668761
 20
1116.6310137149512
 11
830.96003727360221
 21
1116.631013714951
  0
LINE
  8
_0-1_
  6
CONTINUOUS
 62
    7
 10
830.96003727360221
 20
1116.631013714951
 11
830.96003727360244
 21
763.07762312167733
  0
LINE
  8
_0-1_
  6
CONTINUOUS
 62
    7
 10
1007.7367325702393
 20
689.85431841831428
 11
757.73673257023927
 21
939.85431841831428
  0
LINE
  8
_0-1_
  6
CONTINUOUS
 62
    7
 10
757.73673257023927
 20
939.85431841831428
 11
1007.7367325702392
 21
1189.8543184183143
  0
LINE
  8
_0-1_
  6
CONTINUOUS
 62
    7
 10
1007.7367325702392
 20
1189.8543184183143
 11
1257.7367325702394
 21
939.85431841831428
  0
LINE
  8
_0-1_
  6
CONTINUOUS
 62
    7
 10
1257.7367325702394
 20
939.85431841831428
 11
1007.7367325702393
 21
689.85431841831428
  0
LINE
  8
_0-1_
  6
CONTINUOUS
 62
    7
 10
830.96003727360244
 20
763.07762312167733
 11
1184.5134278668761
 21
1116.6310137149512
  0
LINE
  8
_0-1_
  6
CONTINUOUS
 62
    7
 10
830.96003727360255
 20
1116.6310137149512
 11
1184.5134278668761
 21
763.07762312167733
  0
LINE
  8
_0-1_
  6
CONTINUOUS
 62
    7
 10
1007.7367325702393
 20
689.85431841831428
 11
1007.7367325702393
 21
1189.8543184183141
  0
LINE
  8
_0-1_
  6
CONTINUOUS
 62
    7
 10
1257.7367325702394
 20
939.85431841831428
 11
757.73673257023927
 21
939.85431841831428
  0
LINE
  8
_0-1_
  6
CONTINUOUS
 62
    7
 10
830.96003727360244
 20
866.63101371495134
 11
904.18334197696527
 21
939.85431841831428
  0
LINE
  8
_0-1_
  6
CONTINUOUS
 62
    7
 10
904.18334197696527
 20
939.85431841831428
 11
830.96003727360221
 21
1013.0776231216772
  0
LINE
  8
_0-1_
  6
CONTINUOUS
 62
    7
 10
1007.7367325702393
 20
1043.4077090115879
 11
934.5134278668761
 21
1116.631013714951
  0
LINE
  8
_0-1_
  6
CONTINUOUS
 62
    7
 10
1007.7367325702393
 20
1043.4077090115879
 11
1080.9600372736027
 21
1116.631013714951
  0
LINE
  8
_0-1_
  6
CONTINUOUS
 62
    7
 10
1184.5134278668761
 20
1013.0776231216773
 11
1111.2901231635133
 21
939.85431841831428
  0
LINE
  8
_0-1_
  6
CONTINUOUS
 62
    7
 10
1111.2901231635133
 20
939.85431841831428
 11
1184.5134278668761
 21
866.63101371495122
  0
LINE
  8
_0-1_
  6
CONTINUOUS
 62
    7
 10
1080.9600372736024
 20
763.07762312167733
 11
1007.7367325702393
 21
836.3009278250405
  0
LINE
  8
_0-1_
  6
CONTINUOUS
 62
    7
 10
1007.7367325702393
 20
836.3009278250405
 11
934.51342786687621
 21
763.07762312167733
  0
LINE
  8
_0-1_
  6
CONTINUOUS
 62
    7
 10
830.96003727360244
 20
866.63101371495134
 11
934.51342786687633
 21
866.63101371495122
  0
LINE
  8
_0-1_
  6
CONTINUOUS
 62
    7
 10
934.51342786687633
 20
866.63101371495122
 11
934.51342786687621
 21
763.07762312167733
  0
LINE
  8
_0-1_
  6
CONTINUOUS
 62
    7
 10
1080.9600372736024
 20
763.07762312167733
 11
1080.9600372736024
 21
866.63101371495122
  0
LINE
  8
_0-1_
  6
CONTINUOUS
 62
    7
 10
1080.9600372736024
 20
866.63101371495122
 11
1184.5134278668761
 21
866.63101371495122
  0
LINE
  8
_0-1_
  6
CONTINUOUS
 62
    7
 10
1184.5134278668761
 20
1013.0776231216773
 11
1080.9600372736024
 21
1013.0776231216773
  0
LINE
  8
_0-1_
  6
CONTINUOUS
 62
    7
 10
1080.9600372736024
 20
1013.0776231216773
 11
1080.9600372736027
 21
1116.6310137149512
  0
LINE
  8
_0-1_
  6
CONTINUOUS
 62
    7
 10
830.96003727360221
 20
1013.0776231216772
 11
934.51342786687633
 21
1013.0776231216773
  0
LINE
  8
_0-1_
  6
CONTINUOUS
 62
    7
 10
934.51342786687633
 20
1013.0776231216773
 11
934.5134278668761
 21
1116.631013714951
  0
LINE
  8
_0-1_
  6
CONTINUOUS
 62
    7
 10
1834.5134278668763
 20
1766.6310137149512
 11
680.96003727360244
 21
1766.6310137149512
  0
LINE
  8
_0-1_
  6
CONTINUOUS
 62
    7
 10
680.96003727360244
 20
763.07762312167756
 11
1834.5134278668763
 21
763.07762312167756
  0
LINE
  8
_0-1_
  6
CONTINUOUS
 62
    7
 10
1184.5134278668761
 20
763.07762312167733
 11
1297.4974849540934
 21
763.07762312167733
  0
LINE
  8
_0-1_
  6
CONTINUOUS
 62
    7
 10
680.96003727360244
 20
613.07762312167756
 11
680.96003727360244
 21
1766.6310137149512
  0
LINE
  8
_0-1_
  6
CONTINUOUS
 62
    7
 10
830.96003727360244
 20
613.07762312167756
 11
830.96003727360244
 21
1766.6310137149512
  0
LINE
  8
_0-1_
  6
CONTINUOUS
 62
    7
 10
680.96003727360244
 20
613.07762312167756
 11
1834.5134278668763
 21
613.07762312167756
  0
LINE
  8
_0-1_
  6
CONTINUOUS
 62
    7
 10
1834.5134278668763
 20
613.07762312167756
 11
1834.5134278668763
 21
1766.6310137149512
  0
LINE
  8
_0-1_
  6
CONTINUOUS
 62
    7
 10
1834.5134278668763
 20
1616.6310137149512
 11
680.96003727360244
 21
1616.6310137149512
  0
LINE
  8
_0-1_
  6
CONTINUOUS
 62
    7
 10
1684.5134278668763
 20
613.07762312167756
 11
1684.5134278668763
 21
1766.6310137149512
  0
LINE
  8
_0-1_
  6
CONTINUOUS
 62
    7
 10
830.96003727360244
 20
1766.6310137149512
 11
680.96003727360244
 21
1616.6310137149512
  0
LINE
  8
_0-1_
  6
CONTINUOUS
 62
    7
 10
830.96003727360244
 20
1616.6310137149512
 11
680.96003727360244
 21
1766.6310137149512
  0
LINE
  8
_0-1_
  6
CONTINUOUS
 62
    7
 10
1684.5134278668763
 20
1616.6310137149512
 11
1834.5134278668763
 21
1766.6310137149512
  0
LINE
  8
_0-1_
  6
CONTINUOUS
 62
    7
 10
1684.5134278668763
 20
1766.6310137149512
 11
1834.5134278668763
 21
1616.6310137149512
  0
LINE
  8
_0-1_
  6
CONTINUOUS
 62
    7
 10
1684.5134278668763
 20
613.07762312167756
 11
1834.5134278668763
 21
763.07762312167756
  0
LINE
  8
_0-1_
  6
CONTINUOUS
 62
    7
 10
1684.5134278668756
 20
763.07762312167756
 11
1834.5134278668763
 21
613.07762312167756
  0
LINE
  8
_0-1_
  6
CONTINUOUS
 62
    7
 10
680.96003727360244
 20
763.07762312167756
 11
830.96003727360244
 21
613.07762312167756
  0
LINE
  8
_0-1_
  6
CONTINUOUS
 62
    7
 10
830.96003727360244
 20
763.07762312167733
 11
680.96003727360244
 21
613.07762312167756
  0
ENDSEC
  0
EOF
