  0
SECTION
  2
HEADER
  9
$ACADVER
  1
AC1009
  9
$INSBASE
 10
0
 20
0
 30
0
  9
$EXTMIN
 10
0
 20
0
  9
$EXTMAX
 10
2970
 20
2100
  9
$LIMMIN
 10
0
 20
0
  9
$LIMMAX
 10
2970
 20
2100
  9
$LTSCALE
 40
10
  0
ENDSEC
  0
SECTION
  2
TABLES
  0
TABLE
  2
LTYPE
 70
     9
  0
LTYPE
  2
CONTINUOUS
 70
    64
  3
実線
 72
    65
 73
     0
 40
0.0
  0
LTYPE
  2
DASHED1
 70
    64
  3
--  --  --  --  --  --  --  --  
 72
    65
 73
     2
 40
2.5
 49
1.25
 49
-1.25
  0
LTYPE
  2
DASHED2
 70
    64
  3
----    ----    ----    ----    
 72
    65
 73
     2
 40
5.0
 49
2.5
 49
-2.5
  0
LTYPE
  2
DASHED3
 70
    64
  3
------  ------  ------  ------  
 72
    65
 73
     2
 40
5.0
 49
3.75
 49
-1.25
  0
LTYPE
  2
CENTER1
 70
    64
  3
----- - ----- - ----- - ----- - 
 72
    65
 73
     4
 40
10.0
 49
6.25
 49
-1.25
 49
1.25
 49
-1.25
  0
LTYPE
  2
CENTER2
 70
    64
  3
----------  --  ----------  --  
 72
    65
 73
     4
 40
20.0
 49
12.5
 49
-2.5
 49
2.5
 49
-2.5
  0
LTYPE
  2
PHANTOM1
 70
    64
  3
--- - - --- - - --- - - --- - - 
 72
    65
 73
     6
 40
10.0
 49
3.25
 49
-1.25
 49
1.25
 49
-1.25
 49
1.25
 49
-1.25
  0
LTYPE
  2
PHANTOM2
 70
    64
  3
--------  -  -  --------  -  -  
 72
    65
 73
     6
 40
20.0
 49
10.0
 49
-2.5
 49
1.25
 49
-2.5
 49
1.25
 49
-2.5
  0
LTYPE
  2
DOT
 70
    64
  3
-   -   -   -   -   -   -   -   
 72
    65
 73
     2
 40
2.5
 49
0.625
 49
-1.875
  0
LTYPE
  2
DUMMY
 70
    64
  3
ダミー
 72
    65
 73
     0
 40
0.0
  0
LTYPE
  2
RAND1
 70
    64
  3
ランダム線1
 72
    65
 73
     4
 40
10.0
 49
1.0
 49
-2.0
 49
3.0
 49
-4.0
  0
LTYPE
  2
RAND2
 70
    64
  3
ランダム線2
 72
    65
 73
     4
 40
14.0
 49
2.0
 49
-3.0
 49
4.0
 49
-5.0
  0
LTYPE
  2
RAND3
 70
    64
  3
ランダム線3
 72
    65
 73
     4
 40
18.0
 49
3.0
 49
-4.0
 49
5.0
 49
-6.0
  0
LTYPE
  2
RAND4
 70
    64
  3
ランダム線4
 72
    65
 73
     4
 40
22.0
 49
4.0
 49
-5.0
 49
6.0
 49
-7.0
  0
LTYPE
  2
RAND5
 70
    64
  3
ランダム線5
 72
    65
 73
     4
 40
26.0
 49
5.0
 49
-6.0
 49
7.0
 49
-8.0
  0
LTYPE
  2
LONG1
 70
    64
  3
----------  --  ----------  --  
 72
    65
 73
     4
 40
40.0
 49
32.5
 49
-2.5
 49
2.5
 49
-2.5
  0
LTYPE
  2
LONG2
 70
    64
  3
--------  -  -  --------  -  -  
 72
    65
 73
     6
 40
40.0
 49
30.0
 49
-2.5
 49
1.25
 49
-2.5
 49
1.25
 49
-2.5
  0
LTYPE
  2
LONG3
 70
    64
  3
+++++++++++++++..+++++++++++++++
 72
    65
 73
     2
 40
40.0
 49
37.5
 49
-2.5
  0
LTYPE
  2
LONG4
 70
    64
  3
+++++++++++++++..+++++++++++++++
 72
    65
 73
     2
 40
80.0
 49
75.0
 49
-5.0
  0
LTYPE
  2
LONG5
 70
    64
  3
----------  --  ----------  --  
 72
    65
 73
     4
 40
60.0
 49
37.5
 49
-7.5
 49
7.5
 49
-7.5
  0
LTYPE
  2
dashed
 70
   64
  3
-------   -------------   ------
 72
   65
 73
    2
 40
7.5
 49
6
 49
-1.5
  0
LTYPE
  2
dashed_spaced
 70
   64
  3
----        --------        ----
 72
   65
 73
    2
 40
12
 49
6
 49
-6
  0
LTYPE
  2
long_dashed_dotted
 70
   64
  3
------------- --- --------------
 72
   65
 73
    4
 40
15.25
 49
12
 49
-1.5
 49
0.25
 49
-1.5
  0
LTYPE
  2
long_dashed_double-dotted
 70
   64
  3
----------- --- --- ------------
 72
   65
 73
    6
 40
17
 49
12
 49
-1.5
 49
0.25
 49
-1.5
 49
0.25
 49
-1.5
  0
LTYPE
  2
long_dashed_triplicate-dotted
 70
   64
  3
--------- --- --- --- ----------
 72
   65
 73
    8
 40
18.75
 49
12
 49
-1.5
 49
0.25
 49
-1.5
 49
0.25
 49
-1.5
 49
0.25
 49
-1.5
  0
LTYPE
  2
dotted
 70
   64
  3
   -       -       -       -    
 72
   65
 73
    2
 40
1.75
 49
0.25
 49
-1.5
  0
LTYPE
  2
chain
 70
   64
  3
-------------- -- --------------
 72
   65
 73
    4
 40
18.5
 49
12
 49
-1.5
 49
3.5
 49
-1.5
  0
LTYPE
  2
chain_double_dash
 70
   64
  3
------------ -- -- -------------
 72
   65
 73
    6
 40
23.5
 49
12
 49
-1.5
 49
3.5
 49
-1.5
 49
3.5
 49
-1.5
  0
LTYPE
  2
dashed_dotted
 70
   64
  3
-----------     -     ----------
 72
   65
 73
    4
 40
9.25
 49
6
 49
-1.5
 49
0.25
 49
-1.5
  0
LTYPE
  2
double-dashed_dotted
 70
   64
  3
------   -----------   -   -----
 72
   65
 73
    6
 40
16.75
 49
6
 49
-1.5
 49
6
 49
-1.5
 49
0.25
 49
-1.5
  0
LTYPE
  2
dashed_double-dotted
 70
   64
  3
---------    -    -    ---------
 72
   65
 73
    6
 40
11
 49
6
 49
-1.5
 49
0.25
 49
-1.5
 49
0.25
 49
-1.5
  0
LTYPE
  2
double-dashed_double-dotted
 70
   64
  3
-----   ---------   -   -   ----
 72
   65
 73
    8
 40
18.5
 49
6
 49
-1.5
 49
6
 49
-1.5
 49
0.25
 49
-1.5
 49
0.25
 49
-1.5
  0
LTYPE
  2
dashed_triplicate-dotted
 70
   64
  3
-------    -    -    -    ------
 72
   65
 73
    8
 40
12.75
 49
6
 49
-1.5
 49
0.25
 49
-1.5
 49
0.25
 49
-1.5
 49
0.25
 49
-1.5
  0
LTYPE
  2
double-dashed_triplicate-dotted
 70
   64
  3
-----  ---------  -  -  -  -----
 72
   65
 73
   10
 40
20.25
 49
6
 49
-1.5
 49
6
 49
-1.5
 49
0.25
 49
-1.5
 49
0.25
 49
-1.5
 49
0.25
 49
-1.5
  0
LTYPE
  2
undefined
 70
   64
  3
--------------------------------
 72
   65
 73
    0
 40
0
  0
ENDTAB
  0
TABLE
  2
STYLE
  5
3
100
AcDbSymbolTable
 70
     1
  0
STYLE
  5
10
100
AcDbSymbolTableRecord
100
AcDbTextStyleTableRecord
  2
STANDARD
 70
     0
 40
0.0
 41
1.0
 50
0.0
 71
     0
 42
0.2
  3
txt
  4
bigfont.shx
  0
STYLE
  5
26
100
AcDbSymbolTableRecord
100
AcDbTextStyleTableRecord
  2
TATEGAKI
 70
    68
 40
0.0
 41
1.0
 50
0.0
 71
     0
 42
1.0
  3
txt
  4
bigfont.shx
  0
ENDTAB
  0
TABLE
  2
LAYER
 70
    2
  0
LAYER
  2
_0-1_
 70
   64
 62
    7
  6
CONTINUOUS
  0
LAYER
  2
ADD_LINE
 70
   64
 62
    7
  6
CONTINUOUS
  0
ENDTAB
  0
ENDSEC
  0
SECTION
  2
BLOCKS
  0
ENDSEC
  0
SECTION
  2
ENTITIES
  0
LINE
  8
_0-1_
  6
CONTINUOUS
 62
    7
 10
1927.56845264345
 20
1402.7188832432623
 11
2068.8237856117512
 21
1376.6162123646654
  0
LINE
  8
_0-1_
  6
CONTINUOUS
 62
    7
 10
2311.2133589928721
 20
1393.8165417807102
 11
2068.8237856117512
 21
1376.6162123646666
  0
LINE
  8
_0-1_
  6
CONTINUOUS
 62
    7
 10
2339.6142316408241
 20
749.2980625115249
 11
1910.0041707981773
 21
651.77804610446685
  0
LINE
  8
_0-1_
  6
CONTINUOUS
 62
    7
 10
2311.2133589928721
 20
1393.8165417807102
 11
2311.2133589928721
 21
769.23366097099233
  0
LINE
  8
_0-1_
  6
CONTINUOUS
 62
    7
 10
1910.0041707981777
 20
651.77804610446685
 11
1910.0041707981795
 21
1519.7255961440751
  0
LINE
  8
_0-1_
  6
CONTINUOUS
 62
    7
 10
1927.56845264345
 20
1488.227250142734
 11
1927.56845264345
 21
682.92672541696732
  0
LINE
  8
_0-1_
  6
CONTINUOUS
 62
    7
 10
966.53938486664731
 20
653.52891328999704
 11
966.53938486664731
 21
1517.821176156951
  0
LINE
  8
_0-1_
  6
CONTINUOUS
 62
    7
 10
1244.7367477855828
 20
149.72730830767716
 11
2238.6701835109861
 21
515.09083302886802
  0
LINE
  8
_0-1_
  6
CONTINUOUS
 62
    7
 10
2238.6701835109861
 20
1643.6742784857897
 11
1244.7367477855828
 21
2024.727308307677
  0
LINE
  8
_0-1_
  6
CONTINUOUS
 62
    7
 10
347.5741608361048
 20
1781.5686239829122
 11
347.5741608361048
 21
382.87415931943656
  0
LINE
  8
_0-1_
  6
CONTINUOUS
 62
    7
 10
526.09322439687492
 20
1456.861834163863
 11
526.09322439687492
 21
709.57312216661126
  0
LINE
  8
_0-1_
  6
CONTINUOUS
 62
    7
 10
526.09322439687492
 20
1456.861834163863
 11
966.53938486664788
 21
1403.5299903652744
  0
LINE
  8
_0-1_
  6
CONTINUOUS
 62
    7
 10
526.09322439687492
 20
709.57312216661126
 11
966.53938486664731
 21
758.60483569727853
  0
LINE
  8
_0-1_
  6
CONTINUOUS
 62
    7
 10
1599.0103840517763
 20
682.58429206519224
 11
1599.0103840517763
 21
1486.2176116317507
  0
LINE
  8
_0-1_
  6
CONTINUOUS
 62
    7
 10
2339.6142316408241
 20
749.2980625115249
 11
2339.6142316408241
 21
1413.6529768585185
  0
LINE
  8
_0-1_
  6
CONTINUOUS
 62
    7
 10
1910.0041707981795
 20
1519.7255961440751
 11
1599.0103840517761
 21
1486.2176116317507
  0
LINE
  8
_0-1_
  6
CONTINUOUS
 62
    7
 10
1910.0041707981777
 20
651.77804610446685
 11
1599.0103840517761
 21
682.58429206519224
  0
LINE
  8
_0-1_
  6
CONTINUOUS
 62
    7
 10
2238.6701835109861
 20
1643.6742784857897
 11
2238.6701835109861
 21
1438.5765076655425
  0
LINE
  8
_0-1_
  6
CONTINUOUS
 62
    7
 10
2238.6701835109861
 20
726.38410837714468
 11
2238.6701835109861
 21
515.09083302886802
  0
LINE
  8
_0-1_
  6
CONTINUOUS
 62
    7
 10
526.09322439687492
 20
1456.861834163863
 11
966.53938486664731
 21
1517.821176156951
  0
LINE
  8
_0-1_
  6
CONTINUOUS
 62
    7
 10
966.53938486664731
 20
653.52891328999704
 11
966.53938486664731
 21
1517.821176156951
  0
LINE
  8
_0-1_
  6
CONTINUOUS
 62
    7
 10
1910.0041707981795
 20
1519.7255961440751
 11
2339.6142316408241
 21
1413.6529768585185
  0
LINE
  8
_0-1_
  6
CONTINUOUS
 62
    7
 10
2068.8237856117512
 20
765.00178663768475
 11
2068.8237856117512
 21
1376.6162123646666
  0
LINE
  8
_0-1_
  6
CONTINUOUS
 62
    7
 10
1927.56845264345
 20
689.22414080359567
 11
2311.2133589928721
 21
769.23366097099233
  0
LINE
  8
_0-1_
  6
CONTINUOUS
 62
    7
 10
1899.4180191430362
 20
686.52451804203508
 11
1630.8319689209495
 21
710.96801997166745
  0
LINE
  8
_0-1_
  6
CONTINUOUS
 62
    7
 10
1630.8319689209495
 20
710.96801997166745
 11
1630.8319689209495
 21
1457.5530237285545
  0
LINE
  8
_0-1_
  6
CONTINUOUS
 62
    7
 10
1899.4180191430362
 20
1484.2916434838642
 11
1630.8319689209495
 21
1457.5530237285545
  0
LINE
  8
_0-1_
  6
CONTINUOUS
 62
    7
 10
1927.56845264345
 20
1481.3385401719215
 11
2311.2133589928721
 21
1393.8165417807102
  0
LINE
  8
_0-1_
  6
CONTINUOUS
 62
    7
 10
1899.4180191430362
 20
680.18216272730206
 11
1899.4180191430362
 21
1491.2295130085299
  0
LINE
  8
_0-1_
  6
CONTINUOUS
 62
    7
 10
1723.4551742261099
 20
702.53855948504361
 11
1899.418019143036
 21
734.36312833735906
  0
LINE
  8
_0-1_
  6
CONTINUOUS
 62
    7
 10
1927.56845264345
 20
739.45440433701322
 11
2068.8237856117512
 21
765.00178663768475
  0
LINE
  8
_0-1_
  6
CONTINUOUS
 62
    7
 10
2329.1463304354393
 20
746.92188469275061
 11
2329.1463304354393
 21
1395.089092459842
  0
LINE
  8
_0-1_
  6
CONTINUOUS
 62
    7
 10
2329.1463304354393
 20
746.92188469275061
 11
2068.8237856117512
 21
765.00178663768475
  0
LINE
  8
_0-1_
  6
CONTINUOUS
 62
    7
 10
2339.6142316408241
 20
770.28977246283944
 11
1927.56845264345
 21
682.92672541696732
  0
LINE
  8
_0-1_
  6
CONTINUOUS
 62
    7
 10
2068.8237856117512
 20
1376.6162123646654
 11
2068.8237856117512
 21
1396.5720204357194
  0
LINE
  8
_0-1_
  6
CONTINUOUS
 62
    7
 10
2241.8423398870791
 20
1409.6423487237689
 11
2068.8237856117512
 21
1396.572020435719
  0
LINE
  8
_0-1_
  6
CONTINUOUS
 62
    7
 10
1927.56845264345
 20
1424.3599336904751
 11
2068.8237856117512
 21
1396.5720204357194
  0
LINE
  8
_0-1_
  6
CONTINUOUS
 62
    7
 10
1715.8249790928451
 20
1466.014355875054
 11
1899.4180191430362
 21
1429.8977196823766
  0
LINE
  8
_0-1_
  6
CONTINUOUS
 62
    7
 10
1927.56845264345
 20
1488.227250142734
 11
2329.1463304354397
 21
1395.089092459842
  0
LINE
  8
_0-1_
  6
CONTINUOUS
 62
    7
 10
2080.5268683523518
 20
1374.4535915940205
 11
2068.8237856117512
 21
1376.6162123646654
  0
LINE
  8
_0-1_
  6
CONTINUOUS
 62
    7
 10
2311.2133589928721
 20
1390.6653615059499
 11
2080.5268683523518
 21
1374.4535915940205
  0
LINE
  8
_0-1_
  6
CONTINUOUS
 62
    7
 10
2080.5268683523518
 20
786.9345862462294
 11
2080.5268683523518
 21
1374.4535915940205
  0
LINE
  8
_0-1_
  6
CONTINUOUS
 62
    7
 10
2068.8237856117466
 20
1376.6162123646659
 11
2060.8236810466337
 21
1376.0485128883006
  0
LINE
  8
_0-1_
  6
CONTINUOUS
 62
    7
 10
1927.56845264345
 20
1400.5106148273305
 11
2060.8236810466346
 21
1376.0485128883006
  0
LINE
  8
_0-1_
  6
CONTINUOUS
 62
    7
 10
2060.8236810466337
 20
785.47656552222315
 11
2060.8236810466337
 21
1376.0485128883006
  0
LINE
  8
_0-1_
  6
CONTINUOUS
 62
    7
 10
2329.1463304354393
 20
768.07034007912989
 11
2060.8236810466337
 21
785.47656552222315
  0
LINE
  8
_0-1_
  6
CONTINUOUS
 62
    7
 10
2339.6142316408241
 20
770.28977246283944
 11
2080.5268683523504
 21
786.9345862462294
  0
LINE
  8
_0-1_
  6
CONTINUOUS
 62
    7
 10
1927.56845264345
 20
761.09545478422206
 11
2080.5268683523518
 21
786.9345862462294
  0
LINE
  8
_0-1_
  6
CONTINUOUS
 62
    7
 10
1927.56845264345
 20
763.11417578702299
 11
2060.8236810466337
 21
785.47656552222315
  0
LINE
  8
_0-1_
  6
CONTINUOUS
 62
    7
 10
1630.8319689209493
 20
1454.9835101938565
 11
1899.4180191430362
 21
1405.6782827842794
  0
LINE
  8
_0-1_
  6
CONTINUOUS
 62
    7
 10
1630.8319689209495
 20
1457.5530237285545
 11
1899.4180191430362
 21
1407.9208213599352
  0
LINE
  8
_0-1_
  6
CONTINUOUS
 62
    7
 10
1899.4180191430362
 20
1491.2295130085299
 11
1608.1301112315696
 21
1461.7481157448797
  0
LINE
  8
_0-1_
  6
CONTINUOUS
 62
    7
 10
1899.4180191430362
 20
680.18216272730206
 11
1608.1301112315678
 21
707.13301499630177
  0
LINE
  8
_0-1_
  6
CONTINUOUS
 62
    7
 10
1630.8319689209495
 20
713.31697850499324
 11
1899.4180191430362
 21
758.39007623239718
  0
LINE
  8
_0-1_
  6
CONTINUOUS
 62
    7
 10
1608.1301112315678
 20
707.1330149963012
 11
1899.4180191430362
 21
756.34002665979642
  0
LINE
  8
_0-1_
  6
CONTINUOUS
 62
    7
 10
1608.1301112315696
 20
1461.7481157448797
 11
1608.1301112315678
 21
707.1330149963012
  0
LINE
  8
_0-1_
  6
CONTINUOUS
 62
    7
 10
526.09322439687492
 20
709.57312216661126
 11
966.53938486664731
 21
653.52891328999704
  0
LINE
  8
_0-1_
  6
CONTINUOUS
 62
    7
 10
1244.7367477855826
 20
2024.727308307677
 11
347.5741608361048
 21
1781.5686239829122
  0
LINE
  8
_0-1_
  6
CONTINUOUS
 62
    7
 10
966.53938486664731
 20
1517.8211761569503
 11
526.09322439687492
 21
1456.861834163863
  0
LINE
  8
_0-1_
  6
CONTINUOUS
 62
    7
 10
347.57416083610593
 20
382.87415931943656
 11
1244.7367477855839
 21
149.72730830767716
  0
LINE
  8
_0-1_
  6
CONTINUOUS
 62
    7
 10
1244.7367477855828
 20
2024.727308307677
 11
1244.7367477855828
 21
149.72730830767716
  0
ENDSEC
  0
EOF
