  0
SECTION
  2
HEADER
  9
$ACADVER
  1
AC1009
  9
$INSBASE
 10
0
 20
0
 30
0
  9
$EXTMIN
 10
0
 20
0
  9
$EXTMAX
 10
5940
 20
4200
  9
$LIMMIN
 10
0
 20
0
  9
$LIMMAX
 10
5940
 20
4200
  9
$LTSCALE
 40
10
  0
ENDSEC
  0
SECTION
  2
TABLES
  0
TABLE
  2
LTYPE
 70
     9
  0
LTYPE
  2
CONTINUOUS
 70
    64
  3
実線
 72
    65
 73
     0
 40
0.0
  0
LTYPE
  2
DASHED1
 70
    64
  3
--  --  --  --  --  --  --  --  
 72
    65
 73
     2
 40
2.5
 49
1.25
 49
-1.25
  0
LTYPE
  2
DASHED2
 70
    64
  3
----    ----    ----    ----    
 72
    65
 73
     2
 40
5.0
 49
2.5
 49
-2.5
  0
LTYPE
  2
DASHED3
 70
    64
  3
------  ------  ------  ------  
 72
    65
 73
     2
 40
5.0
 49
3.75
 49
-1.25
  0
LTYPE
  2
CENTER1
 70
    64
  3
----- - ----- - ----- - ----- - 
 72
    65
 73
     4
 40
10.0
 49
6.25
 49
-1.25
 49
1.25
 49
-1.25
  0
LTYPE
  2
CENTER2
 70
    64
  3
----------  --  ----------  --  
 72
    65
 73
     4
 40
20.0
 49
12.5
 49
-2.5
 49
2.5
 49
-2.5
  0
LTYPE
  2
PHANTOM1
 70
    64
  3
--- - - --- - - --- - - --- - - 
 72
    65
 73
     6
 40
10.0
 49
3.25
 49
-1.25
 49
1.25
 49
-1.25
 49
1.25
 49
-1.25
  0
LTYPE
  2
PHANTOM2
 70
    64
  3
--------  -  -  --------  -  -  
 72
    65
 73
     6
 40
20.0
 49
10.0
 49
-2.5
 49
1.25
 49
-2.5
 49
1.25
 49
-2.5
  0
LTYPE
  2
DOT
 70
    64
  3
-   -   -   -   -   -   -   -   
 72
    65
 73
     2
 40
2.5
 49
0.625
 49
-1.875
  0
LTYPE
  2
DUMMY
 70
    64
  3
ダミー
 72
    65
 73
     0
 40
0.0
  0
LTYPE
  2
RAND1
 70
    64
  3
ランダム線1
 72
    65
 73
     4
 40
10.0
 49
1.0
 49
-2.0
 49
3.0
 49
-4.0
  0
LTYPE
  2
RAND2
 70
    64
  3
ランダム線2
 72
    65
 73
     4
 40
14.0
 49
2.0
 49
-3.0
 49
4.0
 49
-5.0
  0
LTYPE
  2
RAND3
 70
    64
  3
ランダム線3
 72
    65
 73
     4
 40
18.0
 49
3.0
 49
-4.0
 49
5.0
 49
-6.0
  0
LTYPE
  2
RAND4
 70
    64
  3
ランダム線4
 72
    65
 73
     4
 40
22.0
 49
4.0
 49
-5.0
 49
6.0
 49
-7.0
  0
LTYPE
  2
RAND5
 70
    64
  3
ランダム線5
 72
    65
 73
     4
 40
26.0
 49
5.0
 49
-6.0
 49
7.0
 49
-8.0
  0
LTYPE
  2
LONG1
 70
    64
  3
----------  --  ----------  --  
 72
    65
 73
     4
 40
40.0
 49
32.5
 49
-2.5
 49
2.5
 49
-2.5
  0
LTYPE
  2
LONG2
 70
    64
  3
--------  -  -  --------  -  -  
 72
    65
 73
     6
 40
40.0
 49
30.0
 49
-2.5
 49
1.25
 49
-2.5
 49
1.25
 49
-2.5
  0
LTYPE
  2
LONG3
 70
    64
  3
+++++++++++++++..+++++++++++++++
 72
    65
 73
     2
 40
40.0
 49
37.5
 49
-2.5
  0
LTYPE
  2
LONG4
 70
    64
  3
+++++++++++++++..+++++++++++++++
 72
    65
 73
     2
 40
80.0
 49
75.0
 49
-5.0
  0
LTYPE
  2
LONG5
 70
    64
  3
----------  --  ----------  --  
 72
    65
 73
     4
 40
60.0
 49
37.5
 49
-7.5
 49
7.5
 49
-7.5
  0
LTYPE
  2
dashed
 70
   64
  3
-------   -------------   ------
 72
   65
 73
    2
 40
7.5
 49
6
 49
-1.5
  0
LTYPE
  2
dashed_spaced
 70
   64
  3
----        --------        ----
 72
   65
 73
    2
 40
12
 49
6
 49
-6
  0
LTYPE
  2
long_dashed_dotted
 70
   64
  3
------------- --- --------------
 72
   65
 73
    4
 40
15.25
 49
12
 49
-1.5
 49
0.25
 49
-1.5
  0
LTYPE
  2
long_dashed_double-dotted
 70
   64
  3
----------- --- --- ------------
 72
   65
 73
    6
 40
17
 49
12
 49
-1.5
 49
0.25
 49
-1.5
 49
0.25
 49
-1.5
  0
LTYPE
  2
long_dashed_triplicate-dotted
 70
   64
  3
--------- --- --- --- ----------
 72
   65
 73
    8
 40
18.75
 49
12
 49
-1.5
 49
0.25
 49
-1.5
 49
0.25
 49
-1.5
 49
0.25
 49
-1.5
  0
LTYPE
  2
dotted
 70
   64
  3
   -       -       -       -    
 72
   65
 73
    2
 40
1.75
 49
0.25
 49
-1.5
  0
LTYPE
  2
chain
 70
   64
  3
-------------- -- --------------
 72
   65
 73
    4
 40
18.5
 49
12
 49
-1.5
 49
3.5
 49
-1.5
  0
LTYPE
  2
chain_double_dash
 70
   64
  3
------------ -- -- -------------
 72
   65
 73
    6
 40
23.5
 49
12
 49
-1.5
 49
3.5
 49
-1.5
 49
3.5
 49
-1.5
  0
LTYPE
  2
dashed_dotted
 70
   64
  3
-----------     -     ----------
 72
   65
 73
    4
 40
9.25
 49
6
 49
-1.5
 49
0.25
 49
-1.5
  0
LTYPE
  2
double-dashed_dotted
 70
   64
  3
------   -----------   -   -----
 72
   65
 73
    6
 40
16.75
 49
6
 49
-1.5
 49
6
 49
-1.5
 49
0.25
 49
-1.5
  0
LTYPE
  2
dashed_double-dotted
 70
   64
  3
---------    -    -    ---------
 72
   65
 73
    6
 40
11
 49
6
 49
-1.5
 49
0.25
 49
-1.5
 49
0.25
 49
-1.5
  0
LTYPE
  2
double-dashed_double-dotted
 70
   64
  3
-----   ---------   -   -   ----
 72
   65
 73
    8
 40
18.5
 49
6
 49
-1.5
 49
6
 49
-1.5
 49
0.25
 49
-1.5
 49
0.25
 49
-1.5
  0
LTYPE
  2
dashed_triplicate-dotted
 70
   64
  3
-------    -    -    -    ------
 72
   65
 73
    8
 40
12.75
 49
6
 49
-1.5
 49
0.25
 49
-1.5
 49
0.25
 49
-1.5
 49
0.25
 49
-1.5
  0
LTYPE
  2
double-dashed_triplicate-dotted
 70
   64
  3
-----  ---------  -  -  -  -----
 72
   65
 73
   10
 40
20.25
 49
6
 49
-1.5
 49
6
 49
-1.5
 49
0.25
 49
-1.5
 49
0.25
 49
-1.5
 49
0.25
 49
-1.5
  0
LTYPE
  2
undefined
 70
   64
  3
--------------------------------
 72
   65
 73
    0
 40
0
  0
ENDTAB
  0
TABLE
  2
STYLE
  5
3
100
AcDbSymbolTable
 70
     1
  0
STYLE
  5
10
100
AcDbSymbolTableRecord
100
AcDbTextStyleTableRecord
  2
STANDARD
 70
     0
 40
0.0
 41
1.0
 50
0.0
 71
     0
 42
0.2
  3
txt
  4
bigfont.shx
  0
STYLE
  5
26
100
AcDbSymbolTableRecord
100
AcDbTextStyleTableRecord
  2
TATEGAKI
 70
    68
 40
0.0
 41
1.0
 50
0.0
 71
     0
 42
1.0
  3
txt
  4
bigfont.shx
  0
ENDTAB
  0
TABLE
  2
LAYER
 70
    2
  0
LAYER
  2
_0-0_
 70
   64
 62
    7
  6
CONTINUOUS
  0
LAYER
  2
ADD_LINE
 70
   64
 62
    7
  6
CONTINUOUS
  0
ENDTAB
  0
ENDSEC
  0
SECTION
  2
BLOCKS
  0
ENDSEC
  0
SECTION
  2
ENTITIES
  0
LINE
  8
_0-0_
  6
CONTINUOUS
 62
    7
 10
3088.2557362441412
 20
3203.9094986819655
 11
3888.2557362441412
 21
3203.9094986819655
  0
ARC
  8
_0-0_
  6
CONTINUOUS
 62
    7
 10
3778.2557362441412
 20
2060.1594986819655
 40
16.25
 50
202.61986494804043
 51
337.3801350519596
  0
LINE
  8
_0-0_
  6
CONTINUOUS
 62
    7
 10
3888.2557362441412
 20
3203.9094986819655
 11
3888.2557362441412
 21
1403.9094986819657
  0
LINE
  8
_0-0_
  6
CONTINUOUS
 62
    7
 10
3088.2557362441412
 20
3203.9094986819655
 11
3088.2557362441412
 21
1403.9094986819657
  0
LINE
  8
_0-0_
  6
CONTINUOUS
 62
    7
 10
3838.2557362441412
 20
3153.9094986819655
 11
3838.2557362441412
 21
1403.9094986819657
  0
LINE
  8
_0-0_
  6
CONTINUOUS
 62
    7
 10
3138.2557362441412
 20
3153.9094986819655
 11
3838.2557362441412
 21
3153.9094986819655
  0
LINE
  8
_0-0_
  6
CONTINUOUS
 62
    7
 10
3138.2557362441412
 20
3153.9094986819655
 11
3138.2557362441412
 21
1403.9094986819657
  0
LINE
  8
_0-0_
  6
CONTINUOUS
 62
    7
 10
3088.2557362441412
 20
3203.9094986819655
 11
3138.2557362441412
 21
3153.9094986819655
  0
LINE
  8
_0-0_
  6
CONTINUOUS
 62
    7
 10
3888.2557362441412
 20
3203.9094986819655
 11
3838.2557362441412
 21
3153.9094986819655
  0
LINE
  8
_0-0_
  6
CONTINUOUS
 62
    7
 10
3218.2557362441412
 20
1803.9094986819657
 11
3218.2557362441412
 21
1553.9094986819657
  0
LINE
  8
_0-0_
  6
CONTINUOUS
 62
    7
 10
3218.2557362441412
 20
3053.9094986819655
 11
3218.2557362441412
 21
2303.9094986819655
  0
LINE
  8
_0-0_
  6
CONTINUOUS
 62
    7
 10
3528.2557362441412
 20
3053.9094986819655
 11
3528.2557362441412
 21
2303.9094986819655
  0
LINE
  8
_0-0_
  6
CONTINUOUS
 62
    7
 10
3218.2557362441412
 20
2153.9094986819655
 11
3218.2557362441412
 21
1903.9094986819657
  0
LINE
  8
_0-0_
  6
CONTINUOUS
 62
    7
 10
3243.2557362441412
 20
2328.9094986819655
 11
3243.2557362441412
 21
3028.9094986819655
  0
LINE
  8
_0-0_
  6
CONTINUOUS
 62
    7
 10
3553.2557362441412
 20
3028.9094986819655
 11
3553.2557362441412
 21
2328.9094986819655
  0
LINE
  8
_0-0_
  6
CONTINUOUS
 62
    7
 10
3243.2557362441412
 20
1578.9094986819657
 11
3243.2557362441412
 21
1778.9094986819657
  0
LINE
  8
_0-0_
  6
CONTINUOUS
 62
    7
 10
3243.2557362441412
 20
2128.9094986819655
 11
3243.2557362441412
 21
1928.9094986819657
  0
LINE
  8
_0-0_
  6
CONTINUOUS
 62
    7
 10
3138.2557362441412
 20
1423.9094986819657
 11
3838.2557362441412
 21
1423.9094986819657
  0
LINE
  8
_0-0_
  6
CONTINUOUS
 62
    7
 10
3218.2557362441412
 20
3053.9094986819655
 11
3243.2557362441412
 21
3028.9094986819655
  0
LINE
  8
_0-0_
  6
CONTINUOUS
 62
    7
 10
3528.2557362441412
 20
3053.9094986819655
 11
3553.2557362441412
 21
3028.9094986819655
  0
LINE
  8
_0-0_
  6
CONTINUOUS
 62
    7
 10
3553.2557362441412
 20
2328.9094986819655
 11
3528.2557362441412
 21
2303.9094986819655
  0
LINE
  8
_0-0_
  6
CONTINUOUS
 62
    7
 10
3243.2557362441412
 20
2328.9094986819655
 11
3218.2557362441412
 21
2303.9094986819655
  0
LINE
  8
_0-0_
  6
CONTINUOUS
 62
    7
 10
3218.2557362441412
 20
2153.9094986819655
 11
3243.2557362441412
 21
2128.9094986819655
  0
LINE
  8
_0-0_
  6
CONTINUOUS
 62
    7
 10
3218.2557362441412
 20
1803.9094986819657
 11
3243.2557362441412
 21
1778.9094986819657
  0
LINE
  8
_0-0_
  6
CONTINUOUS
 62
    7
 10
3243.2557362441412
 20
1578.9094986819657
 11
3218.2557362441412
 21
1553.9094986819657
  0
LINE
  8
_0-0_
  6
CONTINUOUS
 62
    7
 10
3738.2557362441412
 20
3053.9094986819655
 11
3713.2557362441412
 21
3028.9094986819655
  0
LINE
  8
_0-0_
  6
CONTINUOUS
 62
    7
 10
3713.2557362441412
 20
2328.9094986819655
 11
3738.2557362441412
 21
2303.9094986819655
  0
LINE
  8
_0-0_
  6
CONTINUOUS
 62
    7
 10
3713.2557362441412
 20
2128.9094986819655
 11
3738.2557362441412
 21
2153.9094986819655
  0
LINE
  8
_0-0_
  6
CONTINUOUS
 62
    7
 10
3713.2557362441412
 20
3028.9094986819655
 11
3553.2557362441412
 21
3028.9094986819655
  0
LINE
  8
_0-0_
  6
CONTINUOUS
 62
    7
 10
3528.2557362441412
 20
3053.9094986819655
 11
3738.2557362441412
 21
3053.9094986819655
  0
LINE
  8
_0-0_
  6
CONTINUOUS
 62
    7
 10
3553.2557362441412
 20
2328.9094986819655
 11
3713.2557362441412
 21
2328.9094986819655
  0
LINE
  8
_0-0_
  6
CONTINUOUS
 62
    7
 10
3713.2557362441412
 20
2328.9094986819655
 11
3713.2557362441412
 21
3028.9094986819655
  0
LINE
  8
_0-0_
  6
CONTINUOUS
 62
    7
 10
3528.2557362441412
 20
2303.9094986819655
 11
3738.2557362441412
 21
2303.9094986819655
  0
LINE
  8
_0-0_
  6
CONTINUOUS
 62
    7
 10
3738.2557362441412
 20
3053.9094986819655
 11
3738.2557362441412
 21
2303.9094986819655
  0
LINE
  8
_0-0_
  6
CONTINUOUS
 62
    7
 10
3738.2557362441412
 20
2153.9094986819655
 11
3738.2557362441412
 21
2123.0175345954926
  0
LINE
  8
_0-0_
  6
CONTINUOUS
 62
    7
 10
3218.2557362441412
 20
2153.9094986819655
 11
3738.2557362441412
 21
2153.9094986819655
  0
LINE
  8
_0-0_
  6
CONTINUOUS
 62
    7
 10
3713.2557362441412
 20
2128.9094986819655
 11
3243.2557362441412
 21
2128.9094986819655
  0
LINE
  8
_0-0_
  6
CONTINUOUS
 62
    7
 10
3218.2557362441412
 20
1803.9094986819657
 11
3738.2557362441412
 21
1803.9094986819657
  0
LINE
  8
_0-0_
  6
CONTINUOUS
 62
    7
 10
3218.2557362441412
 20
1553.9094986819657
 11
3738.2557362441412
 21
1553.9094986819657
  0
LINE
  8
_0-0_
  6
CONTINUOUS
 62
    7
 10
3243.2557362441412
 20
1778.9094986819657
 11
3713.2557362441412
 21
1778.9094986819657
  0
LINE
  8
_0-0_
  6
CONTINUOUS
 62
    7
 10
3243.2557362441412
 20
1578.9094986819657
 11
3713.2557362441412
 21
1578.9094986819657
  0
LINE
  8
_0-0_
  6
CONTINUOUS
 62
    7
 10
3738.2557362441412
 20
1803.9094986819657
 11
3738.2557362441412
 21
1553.9094986819657
  0
LINE
  8
_0-0_
  6
CONTINUOUS
 62
    7
 10
3713.2557362441412
 20
1578.9094986819657
 11
3738.2557362441412
 21
1553.9094986819657
  0
LINE
  8
_0-0_
  6
CONTINUOUS
 62
    7
 10
3713.2557362441412
 20
1778.9094986819657
 11
3738.2557362441412
 21
1803.9094986819657
  0
LINE
  8
_0-0_
  6
CONTINUOUS
 62
    7
 10
3713.2557362441412
 20
1778.9094986819657
 11
3713.2557362441412
 21
1578.9094986819657
  0
LINE
  8
_0-0_
  6
CONTINUOUS
 62
    7
 10
3218.2557362441412
 20
1903.9094986819657
 11
3738.2557362441412
 21
1903.9094986819657
  0
LINE
  8
_0-0_
  6
CONTINUOUS
 62
    7
 10
3243.2557362441412
 20
1928.9094986819657
 11
3713.2557362441412
 21
1928.9094986819657
  0
LINE
  8
_0-0_
  6
CONTINUOUS
 62
    7
 10
3738.2557362441412
 20
2153.9094986819655
 11
3738.2557362441412
 21
1903.9094986819657
  0
LINE
  8
_0-0_
  6
CONTINUOUS
 62
    7
 10
3713.2557362441412
 20
2128.9094986819655
 11
3713.2557362441412
 21
1928.9094986819657
  0
LINE
  8
_0-0_
  6
CONTINUOUS
 62
    7
 10
3713.2557362441412
 20
1928.9094986819657
 11
3738.2557362441412
 21
1903.9094986819657
  0
LINE
  8
_0-0_
  6
CONTINUOUS
 62
    7
 10
3243.2557362441412
 20
1928.9094986819657
 11
3218.2557362441412
 21
1903.9094986819657
  0
LINE
  8
_0-0_
  6
CONTINUOUS
 62
    7
 10
3403.2557362441412
 20
3028.9094986819655
 11
3428.2557362441412
 21
3053.9094986819655
  0
LINE
  8
_0-0_
  6
CONTINUOUS
 62
    7
 10
3428.2557362441412
 20
2303.9094986819655
 11
3403.2557362441412
 21
2328.9094986819655
  0
LINE
  8
_0-0_
  6
CONTINUOUS
 62
    7
 10
3243.2557362441412
 20
3028.9094986819655
 11
3403.2557362441412
 21
3028.9094986819655
  0
LINE
  8
_0-0_
  6
CONTINUOUS
 62
    7
 10
3218.2557362441412
 20
3053.9094986819655
 11
3428.2557362441412
 21
3053.9094986819655
  0
LINE
  8
_0-0_
  6
CONTINUOUS
 62
    7
 10
3403.2557362441412
 20
3028.9094986819655
 11
3403.2557362441412
 21
2328.9094986819655
  0
LINE
  8
_0-0_
  6
CONTINUOUS
 62
    7
 10
3403.2557362441412
 20
2328.9094986819655
 11
3243.2557362441412
 21
2328.9094986819655
  0
LINE
  8
_0-0_
  6
CONTINUOUS
 62
    7
 10
3218.2557362441412
 20
2303.9094986819655
 11
3428.2557362441412
 21
2303.9094986819655
  0
LINE
  8
_0-0_
  6
CONTINUOUS
 62
    7
 10
3428.2557362441412
 20
3053.9094986819655
 11
3428.2557362441412
 21
2303.9094986819655
  0
CIRCLE
  8
_0-0_
  6
CONTINUOUS
 62
    7
 10
3778.2557362441412
 20
2228.9094986819655
 40
30
  0
LINE
  8
_0-0_
  6
CONTINUOUS
 62
    7
 10
3758.2557362441412
 20
2303.9094986819655
 11
3758.2557362441412
 21
2251.2701784569635
  0
LINE
  8
_0-0_
  6
CONTINUOUS
 62
    7
 10
3758.2557362441412
 20
2206.5488189069679
 11
3758.2557362441412
 21
2053.9094986819655
  0
LINE
  8
_0-0_
  6
CONTINUOUS
 62
    7
 10
3798.2557362441412
 20
2206.5488189069679
 11
3798.2557362441412
 21
2053.9094986819655
  0
LINE
  8
_0-0_
  6
CONTINUOUS
 62
    7
 10
3798.2557362441412
 20
2303.9094986819655
 11
3798.2557362441412
 21
2251.2701784569635
  0
LINE
  8
_0-0_
  6
CONTINUOUS
 62
    7
 10
3768.2557362441412
 20
2120.0664568192942
 11
3788.2557362441412
 21
2120.0664568192942
  0
LINE
  8
_0-0_
  6
CONTINUOUS
 62
    7
 10
3773.2557362441412
 20
2145.2492446441211
 11
3768.2557362441412
 21
2120.0664568192942
  0
LINE
  8
_0-0_
  6
CONTINUOUS
 62
    7
 10
3783.2557362441412
 20
2145.2492446441211
 11
3788.2557362441412
 21
2120.0664568192942
  0
ARC
  8
_0-0_
  6
CONTINUOUS
 62
    7
 10
3778.2557362441412
 20
2153.9094986819655
 40
10
 50
300
 51
239.99999999999997
  0
LINE
  8
_0-0_
  6
CONTINUOUS
 62
    7
 10
3758.2557362441412
 20
2053.9094986819655
 11
3763.2557362441412
 21
2053.9094986819655
  0
LINE
  8
_0-0_
  6
CONTINUOUS
 62
    7
 10
3793.2557362441412
 20
2053.9094986819655
 11
3798.2557362441412
 21
2053.9094986819655
  0
ARC
  8
_0-0_
  6
CONTINUOUS
 62
    7
 10
3778.2557362441412
 20
2297.6594986819655
 40
16.25
 50
22.619864948040416
 51
157.38013505195957
  0
LINE
  8
_0-0_
  6
CONTINUOUS
 62
    7
 10
3758.2557362441412
 20
2303.9094986819655
 11
3763.2557362441412
 21
2303.9094986819655
  0
LINE
  8
_0-0_
  6
CONTINUOUS
 62
    7
 10
3793.2557362441412
 20
2303.9094986819655
 11
3798.2557362441412
 21
2303.9094986819655
  0
LINE
  8
_0-0_
  6
CONTINUOUS
 62
    7
 10
3088.2557362441412
 20
1403.9094986819657
 11
3888.2557362441412
 21
1403.9094986819657
  0
ENDSEC
  0
EOF
